<?xml version="1.0" encoding="utf-8"?>
<!-- Generator: Adobe Illustrator 23.0.5, SVG Export Plug-In . SVG Version: 6.00 Build 0)  -->
<svg version="1.1" id="Layer_1" xmlns="http://www.w3.org/2000/svg" xmlns:xlink="http://www.w3.org/1999/xlink" x="0px" y="0px"
	 viewBox="0 0 3000 2000" style="enable-background:new 0 0 3000 2000;" xml:space="preserve">
<style type="text/css">
	.st0{fill:#212222;}
	.st1{fill:#212222;}
	.st2{fill:url(#SVGID_1_);}
	.st3{fill:url(#SVGID_2_);}
	.st4{fill:url(#SVGID_3_);}
	.st5{fill:url(#SVGID_4_);}
	.st6{fill:url(#SVGID_5_);}
	.st7{fill:url(#SVGID_6_);}
	.st8{fill:url(#SVGID_7_);}
	.st9{fill:url(#SVGID_8_);}
	.st10{fill:url(#SVGID_9_);}
	.st11{fill:url(#SVGID_10_);}
	.st12{fill:url(#SVGID_11_);}
</style>
<g>
	<g>
		<path class="st1" d="M1942.44,1242.48c-15.31,228.76-199.83,410.02-424.44,410.02c-159.09,0-298.06-90.93-371.04-225.27
			c-3.58,0.55-7.2,0.98-10.86,1.27c19.75,37.29,44.5,71.43,73.91,101.89c39.99,41.41,86.56,73.93,138.43,96.65
			c53.7,23.53,110.75,35.46,169.56,35.46s115.86-11.93,169.57-35.46c51.86-22.72,98.43-55.24,138.42-96.65
			c39.98-41.41,71.37-89.62,93.29-143.31c18.17-44.49,29.17-91.2,32.82-139.28C1949.06,1246.06,1945.76,1244.25,1942.44,1242.48z"/>
		<g>
			<g>
				<path class="st1" d="M1155.82,1425.66c5.51-1.11,10.91-2.44,16.2-3.88v28.03C1166.37,1441.96,1160.97,1433.91,1155.82,1425.66z"
					/>
				<path class="st1" d="M1187.13,1417.4c10.23-3.11,20.4-6.48,30.5-10.03v96.01c-10.72-10.68-20.9-21.96-30.5-33.79V1417.4z"/>
				<path class="st1" d="M1232.73,1401.91c10.24-3.8,20.41-7.76,30.5-11.82v152.61c-10.54-7.83-20.72-16.18-30.5-25V1401.91z"/>
				<path class="st1" d="M1278.33,1383.92c10.24-4.23,20.41-8.53,30.5-12.85v201.02c-10.44-5.77-20.61-12.01-30.5-18.69V1383.92z"/>
				<path class="st1" d="M1325.41,1363.96c9.59-4.12,19.28-8.27,29.03-12.4v242.1c-10.37-4.1-20.54-8.65-30.5-13.62v-215.45
					C1324.43,1364.38,1324.92,1364.17,1325.41,1363.96z"/>
				<path class="st1" d="M1369.54,1345.22c10.12-4.2,20.3-8.34,30.5-12.32v275.69c-10.33-2.69-20.5-5.79-30.5-9.29V1345.22z"/>
				<path class="st1" d="M1432.09,1321c4.5-1.57,9.03-3.16,13.55-4.75v301.29c-10.29-1.38-20.46-3.17-30.5-5.36v-285.04
					C1420.79,1325.03,1426.44,1322.98,1432.09,1321z"/>
				<path class="st1" d="M1473.15,1306.53c6.02-2.13,12.05-4.26,18.1-6.4v320.81c-10.26-0.15-20.44-0.72-30.5-1.67v-308.35
					C1464.91,1309.44,1469.05,1307.98,1473.15,1306.53z"/>
				<path class="st1" d="M1506.35,1294.82c10.13-3.56,20.3-7.11,30.5-10.63V1619c-10.06,1.03-20.23,1.67-30.5,1.89V1294.82z"/>
				<path class="st1" d="M1551.95,1279.01c10.13-3.45,20.3-6.87,30.5-10.22v342.8c-10.03,2.27-20.2,4.13-30.5,5.58V1279.01z"/>
				<path class="st1" d="M1597.56,1263.88c10.14-3.27,20.3-6.47,30.5-9.56v344.05c-10,3.58-20.17,6.76-30.5,9.51V1263.88z"/>
				<path class="st1" d="M1643.16,1249.77c10.14-2.99,20.31-5.89,30.5-8.67v337.6c-9.95,5.07-20.13,9.71-30.5,13.92V1249.77z"/>
				<path class="st1" d="M1688.76,1237.06c10.15-2.65,20.32-5.18,30.5-7.55v322.1c-9.88,6.79-20.06,13.14-30.5,19.01V1237.06z"/>
				<path class="st1" d="M1734.37,1226.07c9.37-2.06,19.64-4.18,30.5-6.08v295.3c-9.77,8.98-19.95,17.46-30.5,25.43V1226.07z"/>
				<path class="st1" d="M1779.97,1217.56c9.91-1.45,20.15-2.63,30.5-3.34v252.07c-9.58,12.05-19.76,23.55-30.5,34.43V1217.56z"/>
				<path class="st1" d="M1831.89,1213.44c8.27,0,16.36,0.38,24.18,1.12v181.46c-9.1,17.47-19.3,34.2-30.5,50.1v-232.61
					C1827.67,1213.46,1829.78,1213.44,1831.89,1213.44z"/>
				<path class="st1" d="M1871.17,1216.5c10.38,1.7,20.57,4.23,30.5,7.55v33.65c-5.93,37.27-16.3,72.93-30.5,106.35V1216.5z"/>
			</g>
		</g>
		<path class="st1" d="M1978.49,1249.5c0.71-3.2-12.36-11.22-25.4-18.34c-3.35-1.83-6.71-3.59-9.83-5.2
			c-5.51-2.85-10.28-5.2-13-6.51c-0.78-0.38-1.39-0.67-1.8-0.86c-6.99-3.26-14.15-6.12-21.44-8.57c-1.77-0.61-3.55-1.18-5.34-1.72
			c-9.27-2.88-18.75-5.1-28.36-6.66c-0.71-0.11-1.43-0.23-2.14-0.32c-5.02-0.78-10.06-1.39-15.1-1.82
			c-1.89-0.17-3.78-0.32-5.67-0.45c-8.27-0.56-16.55-0.71-24.83-0.53c-5.03,0.09-10.07,0.31-15.1,0.65
			c-3.27,0.22-6.54,0.48-9.81,0.78c-6.91,0.64-13.81,1.46-20.69,2.44c-5.05,0.71-10.08,1.5-15.1,2.37
			c-10.25,1.76-20.43,3.78-30.5,5.94c-2.19,0.48-4.37,0.96-6.55,1.44c-2.59,0.59-5.17,1.16-7.75,1.76
			c-0.27,0.06-0.54,0.13-0.81,0.19c-10.2,2.35-20.37,4.84-30.5,7.46c-5.04,1.29-10.08,2.62-15.1,3.99
			c-10.2,2.75-20.37,5.6-30.5,8.57c-5.04,1.47-10.08,2.97-15.1,4.48c-10.19,3.08-20.36,6.25-30.5,9.5
			c-5.04,1.61-10.08,3.24-15.11,4.88c-10.18,3.35-20.35,6.73-30.5,10.18c-2.85,0.97-5.7,1.94-8.55,2.91
			c-2.19,0.75-4.37,1.51-6.55,2.26c-10.18,3.5-20.35,7.03-30.5,10.59c-5.04,1.77-10.07,3.54-15.1,5.31
			c-10.17,3.6-20.34,7.18-30.5,10.79c-5.04,1.78-10.08,3.56-15.11,5.33c-6.17,2.18-12.34,4.34-18.51,6.5
			c-4.01,1.4-8.01,2.84-11.99,4.31c-5.05,1.85-10.08,3.74-15.1,5.67c-10.21,3.91-20.37,8-30.5,12.18
			c-3.95,1.62-7.88,3.25-11.82,4.91c-1.09,0.45-2.19,0.91-3.28,1.37c-10.18,4.28-20.34,8.63-30.5,13c-3.5,1.49-6.99,2.99-10.49,4.5
			c-1.54,0.65-3.08,1.32-4.62,1.98c-10.15,4.34-20.31,8.67-30.5,12.92c-5.03,2.11-10.06,4.18-15.1,6.23
			c-10.13,4.14-20.29,8.15-30.5,11.99c-0.65,0.25-1.29,0.49-1.94,0.73c-4.37,1.65-8.76,3.25-13.16,4.83
			c-10.1,3.62-20.26,7.06-30.5,10.24c-3.13,0.98-6.27,1.94-9.41,2.87c-1.89,0.56-3.79,1.1-5.7,1.64c-8.01,2.26-16.17,4.31-24.42,5.7
			c-0.86,0.16-1.72,0.3-2.59,0.43h-0.01c-1.8,0.29-3.6,0.52-5.41,0.73c-3.63,0.43-7.27,0.71-10.91,0.79c-1.93,0.06-3.87,0.06-5.81,0
			c-23.29-0.66-43.13-17.2-48.71-39.81L1029.99,1195c6.77,5.9,16.45,8.3,27.45,8.53c1.61,0.04,3.24,0.02,4.9-0.03
			c6.51-0.21,13.38-1.07,20.3-2.33c1.66-0.31,3.32-0.62,4.98-0.98c1.7-0.35,3.4-0.72,5.09-1.11c19.09-4.37,37.48-10.85,48.82-14.06
			c0.14-0.05,0.27-0.09,0.41-0.13c10.06-2.83,20.09-5.79,30.09-8.83c5.04-1.54,10.08-3.11,15.11-4.7c2.48-0.78,4.95-1.55,7.43-2.35
			c55.63-17.8,110.51-38.19,165.37-58c31.85-11.51,63.66-23.13,95.52-34.62c15.37-5.55,30.75-11.07,46.15-16.54
			c51.46-18.28,103.13-35.96,155.32-52.08c45.96-14.19,91.64-28.96,139.41-33.03c7.17-0.62,14.39-0.99,21.66-1.08
			c9.5-0.11,18.78,0.3,27.78,1.24c3.33,0.34,6.63,0.76,9.88,1.25c8.69,1.3,17.1,3.13,25.19,5.46c4.99,1.44,9.85,3.09,14.58,4.92
			c1.79,0.69,3.56,1.41,5.3,2.16c3.78,1.6,7.46,3.35,11.05,5.22c42.93,22.38,72.03,63.2,78.14,122
			C1994.56,1160.51,1988.17,1205.98,1978.49,1249.5z"/>
		<g>
			<g>
				<path class="st0" d="M1121.62,1270.27c-3.42-18.17,3.48-28.09,21.51-31.49l43.99-8.28c18.03-3.39,28.07,3.34,31.49,21.51
					l1.21,6.42l-23.5,4.42l-0.44-2.32c-1.54-8.2-4.98-10.66-13.31-9.09l-27.59,5.2c-8.33,1.57-10.64,5.11-9.09,13.31l6.58,34.97
					c1.54,8.2,4.98,10.66,13.31,9.09l28.41-5.35c8.33-1.57,10.64-5.11,9.09-13.31l-1.03-5.46l-24.59,4.63l-3.34-17.76l47.26-8.9
					l5.04,26.78c3.42,18.17-3.48,28.09-21.51,31.49l-43.99,8.28c-18.03,3.4-28.07-3.34-31.49-21.51L1121.62,1270.27z"/>
				<path class="st0" d="M1343.2,1289.08l-25.09,7.31l-31.11-26.26l-22.42,6.54l9.49,32.56l-22.95,6.69l-27.23-93.41l64.85-18.91
					c16.41-4.78,25.17-0.1,29.99,16.45l3.73,12.81c4.4,15.08,0.55,23.73-12.62,28.73L1343.2,1289.08z M1251.82,1232.9l7.94,27.22
					l32.96-9.61c7.07-2.06,8.55-4.95,6.48-12.03l-2.49-8.54c-2.06-7.07-4.86-8.72-11.93-6.66L1251.82,1232.9z"/>
				<path class="st0" d="M1428.79,1258.53l-12.7-14.51l-44.12,15.72l-0.66,19.27l-23.83,8.49l7.93-106.12l25.27-9l73.12,77.24
					L1428.79,1258.53z M1372.68,1240.6l30.77-10.96l-29.17-32.99L1372.68,1240.6z"/>
				<path class="st0" d="M1459.99,1246.83l-34.4-91.02l59.81-22.6c20.28-7.67,35.29-1,43,19.41l10.81,28.61
					c7.71,20.42,0.87,35.33-19.41,43L1459.99,1246.83z M1475.18,1219.39l32.77-12.38c8.97-3.39,11.8-9.66,8.41-18.63l-9.83-26
					c-3.39-8.97-9.66-11.8-18.63-8.41l-32.77,12.38L1475.18,1219.39z"/>
				<path class="st0" d="M1579.89,1180.97l55.92-19.49l6.5,18.64l-78.49,27.36l-32.03-91.88l77.18-26.9l6.5,18.64l-54.6,19.03
					l6.09,17.46l49.35-17.2l5.95,17.06l-49.35,17.2L1579.89,1180.97z"/>
				<path class="st0" d="M1669.38,1150.34l50.4-13.83l5.59,20.38l-73.46,20.16l-25.74-93.83l23.05-6.33L1669.38,1150.34z"/>
				<path class="st0" d="M1752.73,1130.86l51.67-7.87l3.18,20.89l-75.31,11.46l-14.64-96.19l23.63-3.6L1752.73,1130.86z"/>
				<path class="st0" d="M1891.48,1146.96l-5.99-18.33l-46.76-2.84l-8.16,17.47l-25.25-1.54l48.92-94.5l26.78,1.63l36.96,99.73
					L1891.48,1146.96z M1846.89,1108.46l32.6,1.98l-13.89-41.79L1846.89,1108.46z"/>
			</g>
		</g>
		<linearGradient id="SVGID_1_" gradientUnits="userSpaceOnUse" x1="1096.1174" y1="888.0549" x2="1150.3174" y2="888.0549">
			<stop  offset="0" style="stop-color:#E8532B"/>
			<stop  offset="1" style="stop-color:#CE342C"/>
		</linearGradient>
		<path class="st2" d="M1129.42,841.69l20.9,29.6c-6.68,19.99-12.09,41.79-13.83,63.12l-40.37-45.9
			C1106.73,871.13,1118.04,855.41,1129.42,841.69z"/>
		<linearGradient id="SVGID_2_" gradientUnits="userSpaceOnUse" x1="1144.7874" y1="816.8999" x2="1187.2273" y2="816.8999">
			<stop  offset="0" style="stop-color:#E8532B"/>
			<stop  offset="1" style="stop-color:#CE342C"/>
		</linearGradient>
		<path class="st3" d="M1187.23,789.6c-0.4,0.67-13.78,23.09-26.78,54.59l-15.66-19.78C1159.8,808.7,1174.44,796.82,1187.23,789.6z"
			/>
		<linearGradient id="SVGID_3_" gradientUnits="userSpaceOnUse" x1="1036.2618" y1="1050.5748" x2="1290.6672" y2="1050.5748">
			<stop  offset="0" style="stop-color:#E8532B"/>
			<stop  offset="1" style="stop-color:#CE342C"/>
		</linearGradient>
		<path class="st4" d="M1290.67,1120.13c-33.25,11.96-67.06,23.84-100.7,34.6c-1.95,0.63-3.88,1.24-5.82,1.85l-1.53,0.48
			c-5.31,1.68-10.21,3.2-14.95,4.65c-10.69,3.25-20.43,6.11-29.79,8.74c0,0-0.58,0.17-0.78,0.23c-3.67,1.05-7.83,2.35-12.62,3.85
			c-10.06,3.14-22.59,7.06-35.14,9.93c-1.58,0.37-3.16,0.71-4.75,1.04l-0.14,0.03c-1.48,0.32-3.05,0.61-4.5,0.88
			c-6.69,1.22-12.77,1.93-18.11,2.1c-0.87,0.03-1.74,0.04-2.6,0.04c-2.66,0-5.11-0.15-7.35-0.44
			c-33.1-100.22-9.2-199.93,30.56-275.52l48.07,63.13l3.93,5.19l4.05,5.31l5.59,7.35l0.01,0.02c4.88,11.53,12.16,21.98,22.44,30.78
			c0.91,0.78,1.82,1.54,2.73,2.26l41.71,54.78c4.5,5.82,11.29,9.34,18.6,9.66c0.4,0.02,0.79,0.03,1.19,0.03
			c3.2,0,6.46-0.63,9.44-1.85c1.47-0.6,2.77-1.31,3.92-1.94c1.63-0.9,3.03-1.67,4.49-1.93c1.29-0.23,2.6-0.34,3.88-0.34
			c1.27,0,2.52,0.11,3.65,0.31l0.95,0.2l0.22,0.05c1.01,0.24,1.98,0.55,2.91,0.92c3.52,1.37,6.6,3.64,8.91,6.55L1290.67,1120.13z"/>
		<linearGradient id="SVGID_4_" gradientUnits="userSpaceOnUse" x1="1254.1013" y1="793.3799" x2="1375.7965" y2="793.3799">
			<stop  offset="0" style="stop-color:#E8532B"/>
			<stop  offset="1" style="stop-color:#CE342C"/>
		</linearGradient>
		<path class="st5" d="M1320.34,1106.66v2.29l-27.66-33.41c-1.97-2.38-3.36-5.13-4.13-8.19c-0.88-3.47-0.89-7.15-0.04-10.57
			l0.09-0.35c0.02-0.1,0.05-0.21,0.11-0.39c0.92-3.3,2.36-5.96,4.14-7.69c3.77-3.6,6.32-8.08,7.36-12.93
			c1.59-7.26-0.22-15.07-4.84-20.88l-16.22-20.48c17.82-37.77,24.18-93.23,11.14-154.9c-1.67-7.89-3.34-15.73-5.01-23.52
			c-0.99-4.63-1.98-9.24-2.96-13.83c-0.78-3.67-1.55-7.31-2.33-10.95c-1.5-7.11-2.99-14.16-4.43-21.15
			c-1.04-5.03-2.06-10.03-3.06-15c-2-9.92-3.89-19.74-5.67-29.44c0-0.01,0-0.03-0.01-0.04c-0.87-4.83-1.73-9.64-2.54-14.41
			c0-0.01,0-0.03-0.02-0.04c-0.79-4.79-1.58-9.52-2.31-14.23c0-0.03,0-0.04-0.02-0.06c-1.1-7.07-2.1-14.07-3.01-20.99
			c0-0.03,0-0.06-0.01-0.08c-1.19-9.24-2.2-18.34-2.98-27.32c-5.56-64.11,0.62-121.46,31.89-170.3
			c-0.5,1.55-28.87,90.4,42.62,214.68c11.81,20.53,24.57,41.48,37.35,62.83l-6.63,17.96l-6.08,16.5l-4.78,12.93l-5.91,16.04
			c-2.38,6.43-3.27,13.44-2.59,20.24c0.26,2.71,0.79,5.48,1.58,8.22l32.21,111.1c0.32,1.1,0.27,2.3-0.13,3.36L1320.34,1106.66z"/>
		<linearGradient id="SVGID_5_" gradientUnits="userSpaceOnUse" x1="1375.1375" y1="1020.5248" x2="1464.3237" y2="1020.5248">
			<stop  offset="0" style="stop-color:#E8532B"/>
			<stop  offset="1" style="stop-color:#CE342C"/>
		</linearGradient>
		<path class="st6" d="M1464.23,1018.43c-0.01,0.32-0.02,0.64-0.03,0.96c-0.06,1.85-0.14,3.71-0.24,5.57
			c-0.03,0.52-0.07,1.05-0.1,1.57c-0.1,1.66-0.22,3.33-0.35,4.99c-0.06,0.63-0.11,1.25-0.16,1.88c-0.15,1.57-0.31,3.15-0.48,4.73
			c-0.07,0.68-0.15,1.35-0.23,2.02c-0.18,1.56-0.39,3.12-0.6,4.69c-0.1,0.67-0.18,1.34-0.28,2.01c-0.24,1.64-0.51,3.29-0.79,4.93
			c-0.1,0.58-0.19,1.16-0.29,1.74c-0.32,1.8-0.65,3.6-1.02,5.41c-19.58,7.05-39.04,14.11-58.34,21.12
			c-8.73,3.17-17.45,6.34-26.18,9.51L1414.52,977c0.43-1.23,1.28-2.25,2.43-2.88l40.6-22.64
			C1462.38,973.52,1464.86,995.85,1464.23,1018.43z"/>
		<linearGradient id="SVGID_6_" gradientUnits="userSpaceOnUse" x1="1408.5474" y1="719.1949" x2="1448.2947" y2="719.1949">
			<stop  offset="0" style="stop-color:#E8532B"/>
			<stop  offset="1" style="stop-color:#CE342C"/>
		</linearGradient>
		<path class="st7" d="M1417.46,757.57l-3.31,8.59c-1.87-3.37-3.74-6.74-5.6-10.12l31.17-80.97c0.66-1.7,2.33-2.85,4.15-2.85
			c0.55,0,1.08,0.1,1.59,0.29c1.8,0.7,2.94,2.46,2.83,4.4c-0.03,0.46-0.13,0.92-0.29,1.34L1417.46,757.57z"/>
		<linearGradient id="SVGID_7_" gradientUnits="userSpaceOnUse" x1="1433.9673" y1="749.5549" x2="1485.8933" y2="749.5549">
			<stop  offset="0" style="stop-color:#E8532B"/>
			<stop  offset="1" style="stop-color:#CE342C"/>
		</linearGradient>
		<path class="st8" d="M1485.6,692.72l-46.09,119.69c-1.83-3.43-3.68-6.85-5.54-10.28l43.36-112.6c0.65-1.7,2.31-2.84,4.13-2.84
			c0.55,0,1.08,0.1,1.59,0.29C1485.33,687.87,1486.48,690.44,1485.6,692.72z"/>
		<linearGradient id="SVGID_8_" gradientUnits="userSpaceOnUse" x1="1461.7001" y1="774.3249" x2="1523.4845" y2="774.3249">
			<stop  offset="0" style="stop-color:#E8532B"/>
			<stop  offset="1" style="stop-color:#CE342C"/>
		</linearGradient>
		<path class="st9" d="M1523.19,707.19l-52.91,137.44c-0.67,1.73-2.3,2.85-4.15,2.85c-0.54,0-1.08-0.1-1.59-0.3
			c-2.28-0.87-3.42-3.45-2.54-5.73l25.95-67.4l3.99-10.35l22.98-59.7c0.65-1.7,2.31-2.84,4.13-2.84c0.55,0,1.08,0.1,1.59,0.29
			C1522.93,702.34,1524.07,704.91,1523.19,707.19z"/>
		<linearGradient id="SVGID_9_" gradientUnits="userSpaceOnUse" x1="1387.3274" y1="774.9268" x2="1604.9481" y2="774.9268">
			<stop  offset="0" style="stop-color:#E8532B"/>
			<stop  offset="1" style="stop-color:#CE342C"/>
		</linearGradient>
		<path class="st10" d="M1560.7,718.27c-0.48-1.08-1.36-1.92-2.46-2.35c-0.51-0.19-1.04-0.29-1.59-0.29c-1.82,0-3.49,1.15-4.15,2.85
			l-17.05,44.3l-3.81,9.9l-32.05,83.24c-0.88,2.28,0.26,4.86,2.54,5.73c0.52,0.2,1.05,0.3,1.6,0.3c1.82,0,3.48-1.14,4.13-2.84
			l40.41-104.95l12.51-32.5C1561.21,720.56,1561.18,719.35,1560.7,718.27z M1560.7,718.27c-0.48-1.08-1.36-1.92-2.46-2.35
			c-0.51-0.19-1.04-0.29-1.59-0.29c-1.82,0-3.49,1.15-4.15,2.85l-17.05,44.3l-3.81,9.9l-32.05,83.24c-0.88,2.28,0.26,4.86,2.54,5.73
			c0.52,0.2,1.05,0.3,1.6,0.3c1.82,0,3.48-1.14,4.13-2.84l40.41-104.95l12.51-32.5C1561.21,720.56,1561.18,719.35,1560.7,718.27z
			 M1560.7,718.27c-0.48-1.08-1.36-1.92-2.46-2.35c-0.51-0.19-1.04-0.29-1.59-0.29c-1.82,0-3.49,1.15-4.15,2.85l-17.05,44.3
			l-3.81,9.9l-32.05,83.24c-0.88,2.28,0.26,4.86,2.54,5.73c0.52,0.2,1.05,0.3,1.6,0.3c1.82,0,3.48-1.14,4.13-2.84l40.41-104.95
			l12.51-32.5C1561.21,720.56,1561.18,719.35,1560.7,718.27z M1560.7,718.27c-0.48-1.08-1.36-1.92-2.46-2.35
			c-0.51-0.19-1.04-0.29-1.59-0.29c-1.82,0-3.49,1.15-4.15,2.85l-17.05,44.3l-3.81,9.9l-32.05,83.24c-0.88,2.28,0.26,4.86,2.54,5.73
			c0.52,0.2,1.05,0.3,1.6,0.3c1.82,0,3.48-1.14,4.13-2.84l40.41-104.95l12.51-32.5C1561.21,720.56,1561.18,719.35,1560.7,718.27z
			 M1560.7,718.27c-0.48-1.08-1.36-1.92-2.46-2.35c-0.51-0.19-1.04-0.29-1.59-0.29c-1.82,0-3.49,1.15-4.15,2.85l-17.05,44.3
			l-3.81,9.9l-32.05,83.24c-0.88,2.28,0.26,4.86,2.54,5.73c0.52,0.2,1.05,0.3,1.6,0.3c1.82,0,3.48-1.14,4.13-2.84l40.41-104.95
			l12.51-32.5C1561.21,720.56,1561.18,719.35,1560.7,718.27z M1560.7,718.27c-0.48-1.08-1.36-1.92-2.46-2.35
			c-0.51-0.19-1.04-0.29-1.59-0.29c-1.82,0-3.49,1.15-4.15,2.85l-17.05,44.3l-3.81,9.9l-32.05,83.24c-0.88,2.28,0.26,4.86,2.54,5.73
			c0.52,0.2,1.05,0.3,1.6,0.3c1.82,0,3.48-1.14,4.13-2.84l40.41-104.95l12.51-32.5C1561.21,720.56,1561.18,719.35,1560.7,718.27z
			 M1560.7,718.27c-0.48-1.08-1.36-1.92-2.46-2.35c-0.51-0.19-1.04-0.29-1.59-0.29c-1.82,0-3.49,1.15-4.15,2.85l-17.05,44.3
			l-3.81,9.9l-32.05,83.24c-0.88,2.28,0.26,4.86,2.54,5.73c0.52,0.2,1.05,0.3,1.6,0.3c1.82,0,3.48-1.14,4.13-2.84l40.41-104.95
			l12.51-32.5C1561.21,720.56,1561.18,719.35,1560.7,718.27z M1560.7,718.27c-0.48-1.08-1.36-1.92-2.46-2.35
			c-0.51-0.19-1.04-0.29-1.59-0.29c-1.82,0-3.49,1.15-4.15,2.85l-17.05,44.3l-3.81,9.9l-32.05,83.24c-0.88,2.28,0.26,4.86,2.54,5.73
			c0.52,0.2,1.05,0.3,1.6,0.3c1.82,0,3.48-1.14,4.13-2.84l40.41-104.95l12.51-32.5C1561.21,720.56,1561.18,719.35,1560.7,718.27z
			 M1560.7,718.27c-0.48-1.08-1.36-1.92-2.46-2.35c-0.51-0.19-1.04-0.29-1.59-0.29c-1.82,0-3.49,1.15-4.15,2.85l-17.05,44.3
			l-3.81,9.9l-32.05,83.24c-0.88,2.28,0.26,4.86,2.54,5.73c0.52,0.2,1.05,0.3,1.6,0.3c1.82,0,3.48-1.14,4.13-2.84l40.41-104.95
			l12.51-32.5C1561.21,720.56,1561.18,719.35,1560.7,718.27z M1560.7,718.27c-0.48-1.08-1.36-1.92-2.46-2.35
			c-0.51-0.19-1.04-0.29-1.59-0.29c-1.82,0-3.49,1.15-4.15,2.85l-17.05,44.3l-3.81,9.9l-32.05,83.24c-0.88,2.28,0.26,4.86,2.54,5.73
			c0.52,0.2,1.05,0.3,1.6,0.3c1.82,0,3.48-1.14,4.13-2.84l40.41-104.95l12.51-32.5C1561.21,720.56,1561.18,719.35,1560.7,718.27z
			 M1560.7,718.27c-0.48-1.08-1.36-1.92-2.46-2.35c-0.51-0.19-1.04-0.29-1.59-0.29c-1.82,0-3.49,1.15-4.15,2.85l-17.05,44.3
			l-3.81,9.9l-32.05,83.24c-0.88,2.28,0.26,4.86,2.54,5.73c0.52,0.2,1.05,0.3,1.6,0.3c1.82,0,3.48-1.14,4.13-2.84l40.41-104.95
			l12.51-32.5C1561.21,720.56,1561.18,719.35,1560.7,718.27z M1560.7,718.27c-0.48-1.08-1.36-1.92-2.46-2.35
			c-0.51-0.19-1.04-0.29-1.59-0.29c-1.82,0-3.49,1.15-4.15,2.85l-17.05,44.3l-3.81,9.9l-32.05,83.24c-0.88,2.28,0.26,4.86,2.54,5.73
			c0.52,0.2,1.05,0.3,1.6,0.3c1.82,0,3.48-1.14,4.13-2.84l40.41-104.95l12.51-32.5C1561.21,720.56,1561.18,719.35,1560.7,718.27z
			 M1560.7,718.27c-0.48-1.08-1.36-1.92-2.46-2.35c-0.51-0.19-1.04-0.29-1.59-0.29c-1.82,0-3.49,1.15-4.15,2.85l-17.05,44.3
			l-3.81,9.9l-32.05,83.24c-0.88,2.28,0.26,4.86,2.54,5.73c0.52,0.2,1.05,0.3,1.6,0.3c1.82,0,3.48-1.14,4.13-2.84l40.41-104.95
			l12.51-32.5C1561.21,720.56,1561.18,719.35,1560.7,718.27z M1560.7,718.27c-0.48-1.08-1.36-1.92-2.46-2.35
			c-0.51-0.19-1.04-0.29-1.59-0.29c-1.82,0-3.49,1.15-4.15,2.85l-17.05,44.3l-3.81,9.9l-32.05,83.24c-0.88,2.28,0.26,4.86,2.54,5.73
			c0.52,0.2,1.05,0.3,1.6,0.3c1.82,0,3.48-1.14,4.13-2.84l40.41-104.95l12.51-32.5C1561.21,720.56,1561.18,719.35,1560.7,718.27z
			 M1560.7,718.27c-0.48-1.08-1.36-1.92-2.46-2.35c-0.51-0.19-1.04-0.29-1.59-0.29c-1.82,0-3.49,1.15-4.15,2.85l-17.05,44.3
			l-3.81,9.9l-32.05,83.24c-0.88,2.28,0.26,4.86,2.54,5.73c0.52,0.2,1.05,0.3,1.6,0.3c1.82,0,3.48-1.14,4.13-2.84l40.41-104.95
			l12.51-32.5C1561.21,720.56,1561.18,719.35,1560.7,718.27z M1560.7,718.27c-0.48-1.08-1.36-1.92-2.46-2.35
			c-0.51-0.19-1.04-0.29-1.59-0.29c-1.82,0-3.49,1.15-4.15,2.85l-17.05,44.3l-3.81,9.9l-32.05,83.24c-0.88,2.28,0.26,4.86,2.54,5.73
			c0.52,0.2,1.05,0.3,1.6,0.3c1.82,0,3.48-1.14,4.13-2.84l40.41-104.95l12.51-32.5C1561.21,720.56,1561.18,719.35,1560.7,718.27z
			 M1560.7,718.27c-0.48-1.08-1.36-1.92-2.46-2.35c-0.51-0.19-1.04-0.29-1.59-0.29c-1.82,0-3.49,1.15-4.15,2.85l-17.05,44.3
			l-3.81,9.9l-32.05,83.24c-0.88,2.28,0.26,4.86,2.54,5.73c0.52,0.2,1.05,0.3,1.6,0.3c1.82,0,3.48-1.14,4.13-2.84l40.41-104.95
			l12.51-32.5C1561.21,720.56,1561.18,719.35,1560.7,718.27z M1560.7,718.27c-0.48-1.08-1.36-1.92-2.46-2.35
			c-0.51-0.19-1.04-0.29-1.59-0.29c-1.82,0-3.49,1.15-4.15,2.85l-17.05,44.3l-3.81,9.9l-32.05,83.24c-0.88,2.28,0.26,4.86,2.54,5.73
			c0.52,0.2,1.05,0.3,1.6,0.3c1.82,0,3.48-1.14,4.13-2.84l40.41-104.95l12.51-32.5C1561.21,720.56,1561.18,719.35,1560.7,718.27z
			 M1595.42,678.9c-2.08-1.67-4.46-3.04-7.1-4.01l-88.16-32.51l-21.03-7.76l-30.3-11.17c-3.46-1.28-7.02-1.75-10.48-1.52
			c-2.89,0.19-5.72,0.88-8.35,2.02c-4.73,2.03-8.84,5.49-11.63,10.06c-0.86,1.39-1.58,2.89-2.17,4.48l-10.16,27.54l-18.71,50.73
			c5.9,11.29,11.95,22.45,18.06,33.56l17.65-45.84l12.02-31.21c1.45-3.75,5.03-6.05,8.81-6.05c1.13,0,2.28,0.2,3.39,0.63
			c3.91,1.51,6.25,5.34,6.02,9.32c-0.05,0.96-0.25,1.93-0.61,2.88l-30.54,79.32l-4.82,12.49c4.54,8.18,9.06,16.34,13.52,24.5
			l6.81-17.68l4.26-11.06l4.73-12.29l26.03-67.59c1.44-3.75,5.02-6.05,8.8-6.05c1.13,0,2.28,0.2,3.39,0.63
			c4.86,1.88,7.29,7.34,5.42,12.2l-22.57,58.61l-4.29,11.14l-4.12,10.7l-16.68,43.3c18.77,35.57,35.64,71.56,46.83,109.7l14.75-8.23
			c16.95-9.46,29.96-24.66,36.68-42.87l7.51-20.34l14.85-40.24l3.58-9.7l11.58-31.37l3.55-9.62l1.47-3.99l19.96-54.09
			C1607.26,697,1603.73,685.54,1595.42,678.9z M1474.94,846.43c-1.88,4.87-7.34,7.29-12.2,5.42s-7.28-7.33-5.41-12.2l25.95-67.4
			l3.99-10.35l3.79-9.85l19.19-49.84c1.44-3.75,5.02-6.05,8.8-6.05c1.13,0,2.28,0.2,3.39,0.63c4.87,1.88,7.29,7.34,5.42,12.2
			l-16.65,43.25l-3.34,8.67l-3.9,10.12L1474.94,846.43z M1565.45,723.46l-12.51,32.5l-2.34,6.07l-3.76,9.77l-34.31,89.1
			c-1.87,4.87-7.33,7.29-12.19,5.42c-4.87-1.87-7.29-7.33-5.42-12.2l32.05-83.23l3.81-9.91l2.82-7.32l14.24-36.98
			c1.45-3.75,5.03-6.05,8.81-6.05c1.13,0,2.28,0.2,3.39,0.63C1564.9,713.14,1567.33,718.6,1565.45,723.46z M1558.24,715.92
			c-0.51-0.19-1.04-0.29-1.59-0.29c-1.82,0-3.49,1.15-4.15,2.85l-17.05,44.3l-3.81,9.9l-32.05,83.24c-0.88,2.28,0.26,4.86,2.54,5.73
			c0.52,0.2,1.05,0.3,1.6,0.3c1.82,0,3.48-1.14,4.13-2.84l40.41-104.95l12.51-32.5c0.43-1.1,0.4-2.31-0.08-3.39
			C1560.22,717.19,1559.34,716.35,1558.24,715.92z M1560.7,718.27c-0.48-1.08-1.36-1.92-2.46-2.35c-0.51-0.19-1.04-0.29-1.59-0.29
			c-1.82,0-3.49,1.15-4.15,2.85l-17.05,44.3l-3.81,9.9l-32.05,83.24c-0.88,2.28,0.26,4.86,2.54,5.73c0.52,0.2,1.05,0.3,1.6,0.3
			c1.82,0,3.48-1.14,4.13-2.84l40.41-104.95l12.51-32.5C1561.21,720.56,1561.18,719.35,1560.7,718.27z M1560.7,718.27
			c-0.48-1.08-1.36-1.92-2.46-2.35c-0.51-0.19-1.04-0.29-1.59-0.29c-1.82,0-3.49,1.15-4.15,2.85l-17.05,44.3l-3.81,9.9l-32.05,83.24
			c-0.88,2.28,0.26,4.86,2.54,5.73c0.52,0.2,1.05,0.3,1.6,0.3c1.82,0,3.48-1.14,4.13-2.84l40.41-104.95l12.51-32.5
			C1561.21,720.56,1561.18,719.35,1560.7,718.27z M1560.7,718.27c-0.48-1.08-1.36-1.92-2.46-2.35c-0.51-0.19-1.04-0.29-1.59-0.29
			c-1.82,0-3.49,1.15-4.15,2.85l-17.05,44.3l-3.81,9.9l-32.05,83.24c-0.88,2.28,0.26,4.86,2.54,5.73c0.52,0.2,1.05,0.3,1.6,0.3
			c1.82,0,3.48-1.14,4.13-2.84l40.41-104.95l12.51-32.5C1561.21,720.56,1561.18,719.35,1560.7,718.27z M1560.7,718.27
			c-0.48-1.08-1.36-1.92-2.46-2.35c-0.51-0.19-1.04-0.29-1.59-0.29c-1.82,0-3.49,1.15-4.15,2.85l-17.05,44.3l-3.81,9.9l-32.05,83.24
			c-0.88,2.28,0.26,4.86,2.54,5.73c0.52,0.2,1.05,0.3,1.6,0.3c1.82,0,3.48-1.14,4.13-2.84l40.41-104.95l12.51-32.5
			C1561.21,720.56,1561.18,719.35,1560.7,718.27z M1560.7,718.27c-0.48-1.08-1.36-1.92-2.46-2.35c-0.51-0.19-1.04-0.29-1.59-0.29
			c-1.82,0-3.49,1.15-4.15,2.85l-17.05,44.3l-3.81,9.9l-32.05,83.24c-0.88,2.28,0.26,4.86,2.54,5.73c0.52,0.2,1.05,0.3,1.6,0.3
			c1.82,0,3.48-1.14,4.13-2.84l40.41-104.95l12.51-32.5C1561.21,720.56,1561.18,719.35,1560.7,718.27z M1560.7,718.27
			c-0.48-1.08-1.36-1.92-2.46-2.35c-0.51-0.19-1.04-0.29-1.59-0.29c-1.82,0-3.49,1.15-4.15,2.85l-17.05,44.3l-3.81,9.9l-32.05,83.24
			c-0.88,2.28,0.26,4.86,2.54,5.73c0.52,0.2,1.05,0.3,1.6,0.3c1.82,0,3.48-1.14,4.13-2.84l40.41-104.95l12.51-32.5
			C1561.21,720.56,1561.18,719.35,1560.7,718.27z M1560.7,718.27c-0.48-1.08-1.36-1.92-2.46-2.35c-0.51-0.19-1.04-0.29-1.59-0.29
			c-1.82,0-3.49,1.15-4.15,2.85l-17.05,44.3l-3.81,9.9l-32.05,83.24c-0.88,2.28,0.26,4.86,2.54,5.73c0.52,0.2,1.05,0.3,1.6,0.3
			c1.82,0,3.48-1.14,4.13-2.84l40.41-104.95l12.51-32.5C1561.21,720.56,1561.18,719.35,1560.7,718.27z M1560.7,718.27
			c-0.48-1.08-1.36-1.92-2.46-2.35c-0.51-0.19-1.04-0.29-1.59-0.29c-1.82,0-3.49,1.15-4.15,2.85l-17.05,44.3l-3.81,9.9l-32.05,83.24
			c-0.88,2.28,0.26,4.86,2.54,5.73c0.52,0.2,1.05,0.3,1.6,0.3c1.82,0,3.48-1.14,4.13-2.84l40.41-104.95l12.51-32.5
			C1561.21,720.56,1561.18,719.35,1560.7,718.27z M1560.7,718.27c-0.48-1.08-1.36-1.92-2.46-2.35c-0.51-0.19-1.04-0.29-1.59-0.29
			c-1.82,0-3.49,1.15-4.15,2.85l-17.05,44.3l-3.81,9.9l-32.05,83.24c-0.88,2.28,0.26,4.86,2.54,5.73c0.52,0.2,1.05,0.3,1.6,0.3
			c1.82,0,3.48-1.14,4.13-2.84l40.41-104.95l12.51-32.5C1561.21,720.56,1561.18,719.35,1560.7,718.27z M1560.7,718.27
			c-0.48-1.08-1.36-1.92-2.46-2.35c-0.51-0.19-1.04-0.29-1.59-0.29c-1.82,0-3.49,1.15-4.15,2.85l-17.05,44.3l-3.81,9.9l-32.05,83.24
			c-0.88,2.28,0.26,4.86,2.54,5.73c0.52,0.2,1.05,0.3,1.6,0.3c1.82,0,3.48-1.14,4.13-2.84l40.41-104.95l12.51-32.5
			C1561.21,720.56,1561.18,719.35,1560.7,718.27z M1560.7,718.27c-0.48-1.08-1.36-1.92-2.46-2.35c-0.51-0.19-1.04-0.29-1.59-0.29
			c-1.82,0-3.49,1.15-4.15,2.85l-17.05,44.3l-3.81,9.9l-32.05,83.24c-0.88,2.28,0.26,4.86,2.54,5.73c0.52,0.2,1.05,0.3,1.6,0.3
			c1.82,0,3.48-1.14,4.13-2.84l40.41-104.95l12.51-32.5C1561.21,720.56,1561.18,719.35,1560.7,718.27z M1560.7,718.27
			c-0.48-1.08-1.36-1.92-2.46-2.35c-0.51-0.19-1.04-0.29-1.59-0.29c-1.82,0-3.49,1.15-4.15,2.85l-17.05,44.3l-3.81,9.9l-32.05,83.24
			c-0.88,2.28,0.26,4.86,2.54,5.73c0.52,0.2,1.05,0.3,1.6,0.3c1.82,0,3.48-1.14,4.13-2.84l40.41-104.95l12.51-32.5
			C1561.21,720.56,1561.18,719.35,1560.7,718.27z M1560.7,718.27c-0.48-1.08-1.36-1.92-2.46-2.35c-0.51-0.19-1.04-0.29-1.59-0.29
			c-1.82,0-3.49,1.15-4.15,2.85l-17.05,44.3l-3.81,9.9l-32.05,83.24c-0.88,2.28,0.26,4.86,2.54,5.73c0.52,0.2,1.05,0.3,1.6,0.3
			c1.82,0,3.48-1.14,4.13-2.84l40.41-104.95l12.51-32.5C1561.21,720.56,1561.18,719.35,1560.7,718.27z M1560.7,718.27
			c-0.48-1.08-1.36-1.92-2.46-2.35c-0.51-0.19-1.04-0.29-1.59-0.29c-1.82,0-3.49,1.15-4.15,2.85l-17.05,44.3l-3.81,9.9l-32.05,83.24
			c-0.88,2.28,0.26,4.86,2.54,5.73c0.52,0.2,1.05,0.3,1.6,0.3c1.82,0,3.48-1.14,4.13-2.84l40.41-104.95l12.51-32.5
			C1561.21,720.56,1561.18,719.35,1560.7,718.27z M1560.7,718.27c-0.48-1.08-1.36-1.92-2.46-2.35c-0.51-0.19-1.04-0.29-1.59-0.29
			c-1.82,0-3.49,1.15-4.15,2.85l-17.05,44.3l-3.81,9.9l-32.05,83.24c-0.88,2.28,0.26,4.86,2.54,5.73c0.52,0.2,1.05,0.3,1.6,0.3
			c1.82,0,3.48-1.14,4.13-2.84l40.41-104.95l12.51-32.5C1561.21,720.56,1561.18,719.35,1560.7,718.27z M1560.7,718.27
			c-0.48-1.08-1.36-1.92-2.46-2.35c-0.51-0.19-1.04-0.29-1.59-0.29c-1.82,0-3.49,1.15-4.15,2.85l-17.05,44.3l-3.81,9.9l-32.05,83.24
			c-0.88,2.28,0.26,4.86,2.54,5.73c0.52,0.2,1.05,0.3,1.6,0.3c1.82,0,3.48-1.14,4.13-2.84l40.41-104.95l12.51-32.5
			C1561.21,720.56,1561.18,719.35,1560.7,718.27z M1560.7,718.27c-0.48-1.08-1.36-1.92-2.46-2.35c-0.51-0.19-1.04-0.29-1.59-0.29
			c-1.82,0-3.49,1.15-4.15,2.85l-17.05,44.3l-3.81,9.9l-32.05,83.24c-0.88,2.28,0.26,4.86,2.54,5.73c0.52,0.2,1.05,0.3,1.6,0.3
			c1.82,0,3.48-1.14,4.13-2.84l40.41-104.95l12.51-32.5C1561.21,720.56,1561.18,719.35,1560.7,718.27z M1560.7,718.27
			c-0.48-1.08-1.36-1.92-2.46-2.35c-0.51-0.19-1.04-0.29-1.59-0.29c-1.82,0-3.49,1.15-4.15,2.85l-17.05,44.3l-3.81,9.9l-32.05,83.24
			c-0.88,2.28,0.26,4.86,2.54,5.73c0.52,0.2,1.05,0.3,1.6,0.3c1.82,0,3.48-1.14,4.13-2.84l40.41-104.95l12.51-32.5
			C1561.21,720.56,1561.18,719.35,1560.7,718.27z"/>
		<linearGradient id="SVGID_10_" gradientUnits="userSpaceOnUse" x1="1323.0435" y1="627.0848" x2="1791.4673" y2="627.0848">
			<stop  offset="0" style="stop-color:#E8532B"/>
			<stop  offset="1" style="stop-color:#CE342C"/>
		</linearGradient>
		<path class="st11" d="M1791.47,960.12c-45.52,4.39-89,17.85-131.28,30.94l-7.69,2.38c-50.08,15.46-100.11,32.52-149.54,50.02
			c0.53-9.44,0.67-19.35,0.39-29.75c-0.76-28.28-5.31-55.04-12.5-80.8l15.78-8.8c17.98-10.04,31.81-26.2,38.93-45.51l37.52-101.65
			l24.98-67.7c4.55-12.3,0.73-26.07-9.51-34.25c-2.56-2.05-5.42-3.67-8.5-4.8l-88.16-32.51l-21.03-7.76l-30.29-11.17
			c-3.39-1.25-6.93-1.89-10.53-1.89c-0.67,0-1.35,0.03-2.02,0.07c-3.46,0.23-6.83,1.04-9.99,2.42c-5.83,2.49-10.64,6.66-13.91,12.02
			c-1.02,1.64-1.89,3.45-2.61,5.38l-27.3,74c-30.15-58.52-55.46-120.43-60.33-192.83c-12.94-192.48,128.96-304.35,132.67-307.22
			c0.01-0.01,0.02-0.01,0.02-0.01c-2.42,4.53-123.28,231.19,77.91,412.11c-0.4-1.15-26.61-75.76,28.69-124.55
			c55.72-49.16,50.81-81.13,35.24-125.38c0,0,71.29,25.41,26.21,147.51c-45.06,122.1,27.87,204.87,111.46,328.61
			c13.75,20.36,26.62,43.27,37.89,67.85c-0.05-0.11-0.08-0.2-0.11-0.28c0.79,1.69,1.55,3.38,2.31,5.07
			c0.79,1.77,1.57,3.55,2.34,5.34s1.53,3.58,2.29,5.38c0.6,1.43,1.2,2.89,1.79,4.33c0.31,0.75,0.61,1.49,0.91,2.24
			c0.57,1.44,1.15,2.87,1.72,4.32c0.82,2.13,1.65,4.28,2.46,6.43c0.57,1.54,1.15,3.09,1.72,4.63c0.67,1.87,1.34,3.73,2,5.6
			C1791.42,959.98,1791.45,960.05,1791.47,960.12z"/>
		<linearGradient id="SVGID_11_" gradientUnits="userSpaceOnUse" x1="1846.1575" y1="878.1599" x2="1944.9973" y2="878.1599">
			<stop  offset="0" style="stop-color:#E8532B"/>
			<stop  offset="1" style="stop-color:#CE342C"/>
		</linearGradient>
		<path class="st12" d="M1945,785.1c-1.86,1.27-71.19,49.96-47.71,186.11c-4.07-1.49-8.19-2.83-12.29-4.01
			c-8.74-2.52-17.87-4.5-27.1-5.88c-3.85-0.58-7.77-1.07-11.74-1.46c0.1-2.69,0.23-5.36,0.39-8.01c1.09-18.57,3.36-36.36,7.4-53.13
			c2.44-10.06,5.52-19.76,9.37-29.05c3.86-9.31,8.5-18.19,14.04-26.64C1892.34,820.18,1914.02,800.59,1945,785.1z"/>
		<path class="st1" d="M1315.64,1111.11c-1.88,0.69-3.77,1.37-5.66,2.05c-2.38,0.86-4.77,1.73-7.16,2.59
			c-0.96,0.35-1.92,0.7-2.89,1.04c-1.43,0.53-2.86,1.05-4.29,1.56l-0.01-0.01l-22.58-28.38c-2.88-3.63-6.71-6.42-11-8.1
			c-1.16-0.46-2.35-0.83-3.57-1.12l-0.01-0.01c-0.44-0.09-0.89-0.19-1.34-0.28c-3.1-0.56-6.28-0.54-9.38,0.01
			c-3.59,0.64-6.16,2.82-9.44,4.17c-2.68,1.09-5.6,1.59-8.49,1.45c-5.82-0.26-11.32-3.12-14.89-7.73l-20.18-26.51l-12.26-16.11
			l-0.02-0.01l-20.87-27.42l-6.57-8.63l-5.84-7.66l-2-2.63l-4.71-6.19l-3.17-4.15v-0.01l-0.88-1.15l-3.93-5.18l-8.88-11.66
			l-40.58-53.3l-75.74-99.48c-0.51-0.66-0.76-1.44-0.76-2.21c0-1.05,0.47-2.1,1.36-2.82c1.49-1.18,3.66-1,4.93,0.42l78.58,89.35
			l42.63,48.47l3.53,4.01l10.29,11.71v0.01l1.38,1.56l3.55,4.03l7.02,7.97l4.62,5.26l2.81,3.2l6.91,7.85l40.41,45.95l9.51,10.81
			l4.95,5.63c1.02,1.14,2.13,2.13,3.32,3c7.77,5.64,18.67,5.36,26.17-1.26c8.05-7.07,9.46-19.12,3.24-27.87l-1.69-2.39l-52.38-74.22
			l-6-8.5l-0.45-0.62l-8.58-12.16l-6.11-8.66l-5.66-8.02l-2.36-3.35l-28.2-39.95v-0.01l-19.57-27.72l-15.64-22.15l-41.63-58.98
			c-1.11-1.56-0.8-3.71,0.69-4.9l0.03-0.03c1.56-1.23,3.82-0.97,5.06,0.59l34.15,43.12l25.91,32.71l16.97,21.43l35.25,44.5
			l0.69,0.87l6.39,8.06l5.11,6.45l1.31,1.65l10.48,13.25l6.36,8.03l43.07,54.38l9.75,12.31l14.75,18.62
			c3.72,4.68,5.16,10.87,3.88,16.71c-0.87,4.03-2.98,7.56-5.94,10.39c-2.73,2.64-4.48,6.3-5.5,9.95c-0.08,0.27-0.14,0.53-0.21,0.79
			c-1.08,4.34-1.06,8.85,0.03,13.11c0.93,3.69,2.65,7.15,5.11,10.13L1315.64,1111.11z"/>
		<path class="st0" d="M1216.03,1052.75c1.16,1.43,2.41,2.57,3.72,3.59c0.61,0.54,1.34,0.97,1.96,1.45l2.04,1.27l2.1,1.13
			c0.74,0.32,1.44,0.67,2.15,1.02c1.5,0.57,2.93,1.24,4.48,1.71c0.76,0.28,1.5,0.58,2.3,0.77c0.78,0.24,1.56,0.47,2.34,0.73
			c1.58,0.45,3.2,0.85,4.81,1.35c1.64,0.37,3.29,0.86,4.97,1.34c1.69,0.43,3.39,0.92,5.13,1.62c-1.74,0.6-3.51,0.99-5.3,1.33
			c-1.79,0.26-3.6,0.33-5.42,0.39c-0.91-0.01-1.82-0.09-2.73-0.17c-0.91-0.08-1.82-0.14-2.73-0.32c-1.8-0.38-3.62-0.71-5.37-1.4
			l-1.31-0.49c-0.44-0.15-0.87-0.33-1.29-0.55c-0.84-0.43-1.69-0.84-2.51-1.3c-0.8-0.53-1.59-1.05-2.36-1.61
			c-0.76-0.58-1.46-1.25-2.16-1.88c-0.67-0.69-1.3-1.42-1.88-2.16c-0.54-0.8-1.1-1.56-1.51-2.43
			C1216.59,1056.49,1215.97,1054.62,1216.03,1052.75z"/>
		<path class="st1" d="M1595.42,678.9c-2.08-1.67-4.46-3.04-7.1-4.01l-88.16-32.51l-21.03-7.76l-30.3-11.17
			c-3.46-1.28-7.02-1.75-10.48-1.52c-2.89,0.19-5.72,0.88-8.35,2.02c-4.73,2.03-8.84,5.49-11.63,10.06
			c-0.86,1.39-1.58,2.89-2.17,4.48l-10.16,27.54l-18.71,50.73l-3.72,10.09l-12.53,33.96l-5.23,14.19l-2.98,8.08l-3.1,8.42
			l-4.78,12.93l-5.91,16.04c-2.14,5.79-2.91,11.96-2.3,18.04c0.23,2.46,0.71,4.91,1.4,7.3l0.8,2.76l31.41,108.34
			c0.62,2.15,0.53,4.44-0.26,6.53l-54.79,144.14v0.01c0.74-0.27,1.47-0.53,2.21-0.8c9.1-3.31,18.2-6.61,27.29-9.89
			c2.37-0.86,4.74-1.72,7.12-2.58c2.37-0.86,4.74-1.72,7.11-2.58l40.73-116.39c0.83-2.38,2.5-4.38,4.71-5.6l41.88-23.36l33.05-18.42
			l14.75-8.23c16.95-9.46,29.96-24.66,36.68-42.87l7.51-20.34l14.85-40.24l3.58-9.7l11.58-31.37l3.55-9.62l1.47-3.99l19.96-54.09
			C1607.26,697,1603.73,685.54,1595.42,678.9z M1399.75,817.49c-1.87,4.87-7.33,7.29-12.2,5.42c-4.86-1.87-7.28-7.33-5.41-12.2
			l7.23-18.77l0.24-0.63l4.65-12.07l5.7-14.81l5.43-14.11l17.65-45.84l12.02-31.21c1.45-3.75,5.03-6.05,8.81-6.05
			c1.13,0,2.28,0.2,3.39,0.63c3.91,1.51,6.25,5.34,6.02,9.32c-0.05,0.96-0.25,1.93-0.61,2.88l-30.54,79.32l-4.82,12.49l-0.43,1.13
			l-4.44,11.53l-11.07,28.77L1399.75,817.49z M1437.34,831.96c-1.87,4.87-7.33,7.29-12.19,5.42c-4.86-1.87-7.29-7.33-5.42-12.2
			l11.1-28.82l6.81-17.68l4.26-11.06l4.73-12.29l26.03-67.59c1.44-3.75,5.02-6.05,8.8-6.05c1.13,0,2.28,0.2,3.39,0.63
			c4.86,1.88,7.29,7.34,5.42,12.2l-22.57,58.61l-4.29,11.14l-4.12,10.7l-16.68,43.3L1437.34,831.96z M1474.94,846.43
			c-1.88,4.87-7.34,7.29-12.2,5.42s-7.28-7.33-5.41-12.2l25.95-67.4l3.99-10.35l3.79-9.85l19.19-49.84c1.44-3.75,5.02-6.05,8.8-6.05
			c1.13,0,2.28,0.2,3.39,0.63c4.87,1.88,7.29,7.34,5.42,12.2l-16.65,43.25l-3.34,8.67l-3.9,10.12L1474.94,846.43z M1565.45,723.46
			l-12.51,32.5l-2.34,6.07l-3.76,9.77l-34.31,89.1c-1.87,4.87-7.33,7.29-12.19,5.42c-4.87-1.87-7.29-7.33-5.42-12.2l32.05-83.23
			l3.81-9.91l2.82-7.32l14.24-36.98c1.45-3.75,5.03-6.05,8.81-6.05c1.13,0,2.28,0.2,3.39,0.63
			C1564.9,713.14,1567.33,718.6,1565.45,723.46z"/>
		<g>
			<g>
				<path class="st0" d="M1418.98,675.21l-3.89-0.92c0.19-0.79,4.69-19.42,16.15-23.94c4.92-1.94,10.28-1.02,15.91,2.73l-2.22,3.33
					c-4.54-3.03-8.54-3.79-12.22-2.34C1423.16,657.84,1419.02,675.03,1418.98,675.21z"/>
			</g>
		</g>
		<path class="st0" d="M1501.42,907.44l-76.85,43.14c-0.95,0.53-2.15,0.42-2.99-0.27c-0.25-0.21-0.45-0.45-0.62-0.74
			c-0.71-1.28-0.26-2.9,1.02-3.62l46.54-26.12l5.54-3.11l24.77-13.9c0.96-0.54,2.16-0.43,3,0.27c0.25,0.21,0.46,0.46,0.61,0.74
			C1503.15,905.1,1502.7,906.72,1501.42,907.44z"/>
	</g>
	<g>
		<g>
			<path class="st1" d="M836.41,1764.69v11.2c0,9.2-4.2,13.4-13.4,13.4h-49.6v-70h47.6c9.2,0,13.4,4.2,13.4,13.4v7.9
				c0,6-2,9.9-5.9,11.7C833.81,1753.69,836.41,1757.79,836.41,1764.69z M781.81,1726.09v23.4h36.2c5.9,0,8-2.1,8-8v-7.4
				c0-5.9-2.1-8-8-8H781.81z M828.01,1763.69c0-5.9-2.1-8-8-8h-38.2v26.8h38.2c5.9,0,8-2.1,8-8V1763.69z"/>
			<path class="st1" d="M855.6,1719.29h8.4v70h-8.4V1719.29z"/>
			<path class="st1" d="M884,1737.09c0-12.4,5.5-17.8,17.8-17.8h31.4c12.3,0,17.8,5.4,17.8,17.8v3.7h-8.4v-2.6
				c0-8.7-3.1-11.8-11.8-11.8h-26.6c-8.5,0-11.8,3.1-11.8,11.8v32.3c0,8.5,3.3,11.8,11.8,11.8h26.8c8.7,0,11.8-3.1,11.8-11.8v-10.4
				h-22.8v-6.7h31v18.1c0,12.4-5.5,17.8-17.8,17.8h-31.4c-12.3,0-17.8-5.4-17.8-17.8V1737.09z"/>
			<path class="st1" d="M969.5,1737.09c0-12.4,5.5-17.8,17.8-17.8h31.4c12.3,0,17.8,5.4,17.8,17.8v3.7h-8.4v-2.6
				c0-8.7-3.1-11.8-11.8-11.8h-26.6c-8.5,0-11.8,3.1-11.8,11.8v32.3c0,8.5,3.3,11.8,11.8,11.8h26.8c8.7,0,11.8-3.1,11.8-11.8v-10.4
				h-22.8v-6.7h31v18.1c0,12.4-5.5,17.8-17.8,17.8h-31.4c-12.3,0-17.8-5.4-17.8-17.8V1737.09z"/>
			<path class="st1" d="M1064.4,1782.19h48.2v7.1H1056v-70h55.6v7.1h-47.2v22.9h43.2v6.7h-43.2V1782.19z"/>
			<path class="st1" d="M1194.41,1789.3h-9.7l-20.7-28.1h-26.2v28.1h-8.4v-70h46.2c11.2,0,15.8,4.5,15.8,15.8v9.9
				c0,11.3-4.6,15.8-15.8,15.8l-2.3,0.1L1194.41,1789.3z M1137.8,1725.99v28.6h35.2c7.7,0,10-2.3,10-10v-8.6c0-7.7-2.3-10-10-10
				H1137.8z"/>
			<path class="st1" d="M1304.8,1719.29v7.5h-27.4v62.5h-8.4v-62.5h-27.4v-7.5H1304.8z"/>
			<path class="st1" d="M1375.4,1719.29h8.4v70h-8.4v-33.1h-47.2v33.1h-8.4v-70h8.4v29.5h47.2V1719.29z"/>
			<path class="st1" d="M1465.6,1789.3l-8.5-18.1h-41.9l-8.5,18.1h-8.9l34.1-70h9l34.1,70H1465.6z M1418.4,1764.49h35.5l-17.7-37.8
				L1418.4,1764.49z"/>
			<path class="st1" d="M1546.5,1719.29h8.2v70h-6.6l-51.2-57.4v57.4h-8.2v-70h7.1l50.7,56.8V1719.29z"/>
			<path class="st1" d="M1675.3,1719.29l-31.6,43.9v26.1h-8.4v-26.1l-31.6-43.9h9.9l26.2,37.2l26-37.2H1675.3z"/>
			<path class="st1" d="M1702.4,1789.3c-12.3,0-17.8-5.4-17.8-17.8v-34.4c0-12.4,5.5-17.8,17.8-17.8h31.4c12.3,0,17.8,5.4,17.8,17.8
				v34.4c0,12.4-5.5,17.8-17.8,17.8H1702.4z M1731.4,1781.99c8.7,0,11.8-3.1,11.8-11.8v-31.8c0-8.7-3.1-11.8-11.8-11.8h-26.6
				c-8.5,0-11.8,3.1-11.8,11.8v31.8c0,8.7,3.3,11.8,11.8,11.8H1731.4z"/>
			<path class="st1" d="M1788,1789.3c-12.3,0-17.8-5.4-17.8-17.8v-52.2h8.4v50.9c0,8.7,3.1,11.8,11.8,11.8h23.6
				c8.7,0,11.8-3.1,11.8-11.8v-50.9h8.4v52.2c0,12.4-5.5,17.8-17.8,17.8H1788z"/>
			<path class="st1" d="M1947.5,1719.29v7.5h-27.4v62.5h-8.4v-62.5h-27.4v-7.5H1947.5z"/>
			<path class="st1" d="M2018.1,1719.29h8.4v70h-8.4v-33.1h-47.2v33.1h-8.4v-70h8.4v29.5h47.2V1719.29z"/>
			<path class="st1" d="M2047.49,1719.29h8.4v70h-8.4V1719.29z"/>
			<path class="st1" d="M2134.7,1719.29h8.2v70h-6.6l-51.2-57.4v57.4h-8.2v-70h7.1l50.7,56.8V1719.29z"/>
			<path class="st1" d="M2226.6,1789.3h-12.8l-42.1-35v35h-8.4v-70h8.4v33l41.6-33h12.9l-44,33.9L2226.6,1789.3z"/>
		</g>
	</g>
</g>
</svg>
