<svg width="500" height="600" xmlns="http://www.w3.org/2000/svg">
 <defs>
  <linearGradient y2="0.50005" x2="0.99995" y1="0.50005" x1="-0.00005" id="svg_12">
   <stop stop-color="#E8532B" offset="0"/>
   <stop stop-color="#CE342C" offset="1"/>
  </linearGradient>
  <linearGradient y2="0.50009" x2="0.99994" y1="0.50009" x1="-0.00006" id="svg_11">
   <stop stop-color="#E8532B" offset="0"/>
   <stop stop-color="#CE342C" offset="1"/>
  </linearGradient>
  <linearGradient y2="0.50002" x2="0.99999" y1="0.50002" x1="-0.00001" id="svg_10">
   <stop stop-color="#E8532B" offset="0"/>
   <stop stop-color="#CE342C" offset="1"/>
  </linearGradient>
  <linearGradient y2="0.50001" x2="0.99998" y1="0.50001" x1="-0.00002" id="svg_9">
   <stop stop-color="#E8532B" offset="0"/>
   <stop stop-color="#CE342C" offset="1"/>
  </linearGradient>
  <linearGradient y2="0.50003" x2="0.99997" y1="0.50003" x1="-0.00003" id="svg_8">
   <stop stop-color="#E8532B" offset="0"/>
   <stop stop-color="#CE342C" offset="1"/>
  </linearGradient>
  <linearGradient y2="0.50005" x2="0.99993" y1="0.50005" x1="-0.00007" id="svg_7">
   <stop stop-color="#E8532B" offset="0"/>
   <stop stop-color="#CE342C" offset="1"/>
  </linearGradient>
  <linearGradient y2="0.50004" x2="0.99995" y1="0.50004" x1="-0.00005" id="svg_6">
   <stop stop-color="#E8532B" offset="0"/>
   <stop stop-color="#CE342C" offset="1"/>
  </linearGradient>
  <linearGradient y2="0.50003" x2="0.99996" y1="0.50003" x1="-0.00004" id="svg_5">
   <stop stop-color="#E8532B" offset="0"/>
   <stop stop-color="#CE342C" offset="1"/>
  </linearGradient>
  <linearGradient y2="0.50002" x2="0.99999" y1="0.50002" x1="-0.00001" id="svg_4">
   <stop stop-color="#E8532B" offset="0"/>
   <stop stop-color="#CE342C" offset="1"/>
  </linearGradient>
  <linearGradient y2="0.50001" x2="0.99999" y1="0.50001" x1="-0.00001" id="svg_3">
   <stop stop-color="#E8532B" offset="0"/>
   <stop stop-color="#CE342C" offset="1"/>
  </linearGradient>
  <linearGradient y2="0.50003" x2="0.99997" y1="0.50003" x1="-0.00003" id="svg_2">
   <stop stop-color="#E8532B" offset="0"/>
   <stop stop-color="#CE342C" offset="1"/>
  </linearGradient>
 </defs>
 <g>
  <title>Layer 1</title>
  <g id="svg_1" stroke="null">
   <g id="svg_13" stroke="null">
    <g id="svg_14" stroke="null">
     <path fill="#212222" d="m426.33889,419.35691c-6.10202,91.17562 -79.64515,163.41943 -169.16673,163.41943c-63.40763,0 -118.79614,-36.24147 -147.88338,-89.78463c-1.42686,0.21921 -2.86966,0.39059 -4.32841,0.50618c7.87165,14.86247 17.73612,28.46946 29.4579,40.60974c15.9386,16.50456 34.49975,29.46588 55.17329,38.52126c21.40292,9.37822 44.14102,14.1331 67.5806,14.1331s46.17769,-4.75487 67.58459,-14.1331c20.66956,-9.05539 39.23071,-22.0167 55.1693,-38.52126c15.93461,-16.50456 28.44555,-35.71935 37.18209,-57.11828c7.24192,-17.73214 11.62613,-36.34909 13.08089,-55.51207c-1.21164,-0.6935 -2.5269,-1.4149 -3.85013,-2.12036l-0.00001,-0.00001z" class="st1" id="svg_15" stroke="null"/>
     <g id="svg_16" stroke="null">
      <g id="svg_17" stroke="null">
       <path fill="#212222" d="m112.82006,492.36596c2.19609,-0.44241 4.34834,-0.9725 6.45675,-1.54643l0,11.17176c-2.25189,-3.12873 -4.40414,-6.33718 -6.45675,-9.62533z" class="st1" id="svg_18" stroke="null"/>
       <path fill="#212222" d="m125.29912,489.07382c4.07732,-1.23954 8.13072,-2.5827 12.15622,-3.9976l0,38.26618c-4.27261,-4.25667 -8.33,-8.75248 -12.15622,-13.4675l0,-20.80108z" class="st1" id="svg_19" stroke="null"/>
       <path fill="#212222" d="m143.47366,482.90006c4.0813,-1.51455 8.1347,-3.09286 12.15622,-4.71103l0,60.82493c-4.20087,-3.12076 -8.25826,-6.44877 -12.15622,-9.96411l0,-46.14979z" class="st1" id="svg_20" stroke="null"/>
       <path fill="#212222" d="m161.6482,475.72988c4.0813,-1.68593 8.1347,-3.39976 12.15622,-5.12155l0,80.11944c-4.16101,-2.29972 -8.21441,-4.78676 -12.15622,-7.44917l0,-67.54872z" class="st1" id="svg_21" stroke="null"/>
       <path fill="#212222" d="m180.41262,467.77453c3.82223,-1.64209 7.68432,-3.29613 11.57033,-4.9422l0,96.49247c-4.13311,-1.63411 -8.18652,-3.44758 -12.15622,-5.42845l0,-85.87073c0.1953,-0.0837 0.39059,-0.1674 0.58589,-0.2511l0,0.00001z" class="st1" id="svg_22" stroke="null"/>
       <path fill="#212222" d="m198.00127,460.30543c4.03347,-1.67397 8.09086,-3.32403 12.15622,-4.91032l0,109.88026c-4.11717,-1.07214 -8.17057,-2.30769 -12.15622,-3.70266l0,-101.26728z" class="st1" id="svg_23" stroke="null"/>
       <path fill="#212222" d="m222.93149,450.6522c1.79354,-0.62575 3.59904,-1.25946 5.40055,-1.89318l0,120.08351c-4.10123,-0.55002 -8.15463,-1.26345 -12.15622,-2.13631l0,-113.60683c2.25189,-0.84097 4.50378,-1.65803 6.75567,-2.44719z" class="st1" id="svg_24" stroke="null"/>
       <path fill="#212222" d="m239.29654,444.88497c2.39936,-0.84894 4.8027,-1.69788 7.21402,-2.55081l0,127.86349c-4.08927,-0.05978 -8.14666,-0.28697 -12.15622,-0.6656l0,-122.89737c1.65803,-0.58988 3.30809,-1.17178 4.9422,-1.7497l0,-0.00001z" class="st1" id="svg_25" stroke="null"/>
       <path fill="#212222" d="m252.52889,440.21778c4.03746,-1.41889 8.09086,-2.83379 12.15622,-4.23674l0,133.44339c-4.00956,0.41052 -8.06296,0.6656 -12.15622,0.75329l0,-129.95994z" class="st1" id="svg_26" stroke="null"/>
       <path fill="#212222" d="m270.70343,433.91647c4.03746,-1.37505 8.09086,-2.73814 12.15622,-4.07333l0,136.62792c-3.9976,0.90474 -8.051,1.64607 -12.15622,2.22399l0,-134.77858z" class="st1" id="svg_27" stroke="null"/>
       <path fill="#212222" d="m288.88196,427.88619c4.04144,-1.30331 8.09086,-2.57871 12.15622,-3.81028l0,137.12613c-3.98565,1.42686 -8.03905,2.6943 -12.15622,3.79035l0,-137.1062z" class="st1" id="svg_28" stroke="null"/>
       <path fill="#212222" d="m307.0565,422.26245c4.04144,-1.19171 8.09485,-2.34755 12.15622,-3.45555l0,134.55539c-3.96572,2.02072 -8.0231,3.87006 -12.15622,5.54802l0,-136.64785l0,-0.00001z" class="st1" id="svg_29" stroke="null"/>
       <path fill="#212222" d="m325.23104,417.19669c4.04543,-1.0562 8.09883,-2.06456 12.15622,-3.00916l0,128.37764c-3.93782,2.70625 -7.9952,5.23714 -12.15622,7.57671l0,-132.94518l0,-0.00001z" class="st1" id="svg_30" stroke="null"/>
       <path fill="#212222" d="m343.40957,412.81647c3.73455,-0.82104 7.82781,-1.666 12.15622,-2.42327l0,117.69611c-3.89398,3.57911 -7.95136,6.95894 -12.15622,10.1355l0,-125.40833l0,-0.00001z" class="st1" id="svg_31" stroke="null"/>
       <path fill="#212222" d="m361.58411,409.42468c3.94977,-0.57792 8.03108,-1.04822 12.15622,-1.33121l0,100.46616c-3.81825,4.8027 -7.87564,9.38619 -12.15622,13.72258l0,-112.85753z" class="st1" id="svg_32" stroke="null"/>
       <path fill="#212222" d="m382.27758,407.7826c3.29613,0 6.52052,0.15145 9.63729,0.44639l0,72.32352c-3.62694,6.96292 -7.6923,13.63091 -12.15622,19.96808l0,-92.7101c0.83699,-0.01993 1.67796,-0.0279 2.51893,-0.0279l0,0.00001z" class="st1" id="svg_33" stroke="null"/>
       <path fill="#212222" d="m397.9332,409.00221c4.1371,0.67756 8.19847,1.68593 12.15622,3.00916l0,13.4117c-2.36349,14.8545 -6.4966,29.06731 -12.15622,42.38734l0,-58.8082z" class="st1" id="svg_34" stroke="null"/>
      </g>
     </g>
     <path fill="#212222" d="m440.70714,422.15484c0.28298,-1.27541 -4.92626,-4.47189 -10.12354,-7.30967c-1.33519,-0.72937 -2.67437,-1.43085 -3.91789,-2.07254c-2.19609,-1.13591 -4.09724,-2.07254 -5.18134,-2.59466c-0.31088,-0.15145 -0.554,-0.26704 -0.71742,-0.34277c-2.78597,-1.29932 -5.63969,-2.43921 -8.54522,-3.4157c-0.70546,-0.24312 -1.4149,-0.47031 -2.12833,-0.68553c-3.69469,-1.14787 -7.47308,-2.03268 -11.30329,-2.65444c-0.28298,-0.04384 -0.56995,-0.09167 -0.85293,-0.12754c-2.00079,-0.31088 -4.00956,-0.554 -6.01832,-0.72539c-0.75329,-0.06776 -1.50657,-0.12754 -2.25986,-0.17935c-3.29613,-0.2232 -6.59624,-0.28298 -9.89636,-0.21124c-2.00478,0.03587 -4.01354,0.12356 -6.01832,0.25907c-1.30331,0.08768 -2.60661,0.19131 -3.90992,0.31088c-2.75408,0.25508 -5.50418,0.5819 -8.2463,0.9725c-2.01275,0.28298 -4.01753,0.59785 -6.01832,0.9446c-4.08529,0.70147 -8.14267,1.50657 -12.15622,2.36747c-0.87286,0.19131 -1.74173,0.38262 -2.6106,0.57393c-1.03228,0.23515 -2.06058,0.46233 -3.08888,0.70147c-0.10761,0.02391 -0.21522,0.05181 -0.32284,0.07573c-4.06536,0.93663 -8.11876,1.92905 -12.15622,2.97329c-2.00877,0.51415 -4.01753,1.04424 -6.01832,1.59027c-4.06536,1.09605 -8.11876,2.23196 -12.15622,3.4157c-2.00877,0.58589 -4.01753,1.18374 -6.01832,1.78557c-4.06137,1.22758 -8.11477,2.49103 -12.15622,3.78636c-2.00877,0.64169 -4.01753,1.29135 -6.02231,1.94499c-4.05739,1.33519 -8.11079,2.68234 -12.15622,4.05739c-1.13591,0.38661 -2.27182,0.77322 -3.40773,1.15982c-0.87286,0.29892 -1.74173,0.60183 -2.6106,0.90076c-4.05739,1.39498 -8.11079,2.80191 -12.15622,4.2208c-2.00877,0.70546 -4.01354,1.41092 -6.01832,2.11638c-4.0534,1.43483 -8.1068,2.86169 -12.15622,4.30051c-2.00877,0.70944 -4.01753,1.41889 -6.02231,2.12435c-2.45914,0.86887 -4.91829,1.72977 -7.37743,2.59067c-1.59824,0.55799 -3.1925,1.13192 -4.77879,1.71781c-2.01275,0.73734 -4.01753,1.49063 -6.01832,2.25986c-4.06934,1.55839 -8.11876,3.18852 -12.15622,4.85452c-1.57433,0.64567 -3.14069,1.29533 -4.71103,1.95695c-0.43444,0.17935 -0.87286,0.36269 -1.30729,0.54603c-4.05739,1.70586 -8.1068,3.43961 -12.15622,5.18134c-1.39498,0.59386 -2.78597,1.19171 -4.18094,1.79354c-0.61379,0.25907 -1.22758,0.52611 -1.84137,0.78916c-4.04543,1.72977 -8.09485,3.45555 -12.15622,5.14945c-2.00478,0.84097 -4.00956,1.666 -6.01832,2.48306c-4.03746,1.65006 -8.08687,3.2483 -12.15622,4.77879c-0.25907,0.09964 -0.51415,0.1953 -0.77322,0.29095c-1.74173,0.65763 -3.49143,1.29533 -5.24511,1.92507c-4.0255,1.4428 -8.07492,2.81387 -12.15622,4.0813c-1.24751,0.39059 -2.499,0.77322 -3.75049,1.14388c-0.75329,0.2232 -1.51056,0.43842 -2.27182,0.65365c-3.1925,0.90076 -6.44479,1.71781 -9.73295,2.27182c-0.34277,0.06377 -0.68553,0.11957 -1.03228,0.17138l-0.00399,0c-0.71742,0.11558 -1.43483,0.20725 -2.15623,0.29095c-1.44679,0.17138 -2.89756,0.28298 -4.34834,0.31487c-0.76923,0.02391 -1.54244,0.02391 -2.31566,0c-9.28257,-0.26305 -17.19009,-6.85531 -19.41408,-15.86685l-17.60858,-71.36298c2.69828,2.35153 6.55639,3.30809 10.9406,3.39976c0.64169,0.01594 1.29135,0.00797 1.95297,-0.01196c2.59466,-0.0837 5.33279,-0.42646 8.09086,-0.92866c0.66162,-0.12356 1.32323,-0.24711 1.98485,-0.39059c0.67756,-0.1395 1.35512,-0.28697 2.02869,-0.44241c7.6086,-1.74173 14.9382,-4.32443 19.45792,-5.60382c0.0558,-0.01993 0.10761,-0.03587 0.16341,-0.05181c4.00956,-1.12794 8.00716,-2.30769 11.99281,-3.51932c2.00877,-0.61379 4.01753,-1.23954 6.02231,-1.87325c0.98844,-0.31088 1.97289,-0.61778 2.96133,-0.93663c22.17214,-7.09445 44.04537,-15.22118 65.91062,-23.11674c12.69428,-4.58748 25.37262,-9.2188 38.07088,-13.7983c6.12594,-2.21203 12.25586,-4.41211 18.39375,-6.59226c20.51013,-7.28576 41.10396,-14.33238 61.90504,-20.75724c18.31803,-5.65563 36.52445,-11.54243 55.56388,-13.16459c2.85771,-0.24711 5.73534,-0.39458 8.63291,-0.43045c3.78636,-0.04384 7.48504,0.11957 11.07212,0.49422c1.32722,0.13551 2.64248,0.30291 3.93782,0.49821c3.46353,0.51813 6.81545,1.24751 10.03984,2.17616c1.98884,0.57393 3.92586,1.23156 5.81107,1.96094c0.71343,0.27501 1.41889,0.56198 2.11239,0.8609c1.50657,0.6377 2.97329,1.33519 4.40414,2.08051c17.11038,8.91987 28.7086,25.18928 31.14383,48.62487c1.84934,17.77598 -0.69749,35.89871 -4.55559,53.24424l0.00002,-0.00001z" class="st1" id="svg_35" stroke="null"/>
     <g id="svg_36" stroke="null">
      <g id="svg_37" stroke="null">
       <path fill="#212222" d="m99.18916,430.43302c-1.36309,-7.24192 1.387,-11.19568 8.57312,-12.5508l17.53285,-3.30011c7.18612,-1.35113 11.18771,1.33121 12.5508,8.57312l0.48226,2.55878l-9.36627,1.76166l-0.17537,-0.92467c-0.61379,-3.26823 -1.98485,-4.2487 -5.30489,-3.62295l-10.9964,2.07254c-3.32004,0.62575 -4.24073,2.03666 -3.62295,5.30489l2.62255,13.9378c0.61379,3.26823 1.98485,4.2487 5.30489,3.62295l11.32322,-2.13232c3.32004,-0.62575 4.24073,-2.03666 3.62295,-5.30489l-0.41052,-2.17616l-9.8007,1.84535l-1.33121,-7.07851l18.83616,-3.54722l2.00877,10.67356c1.36309,7.24192 -1.387,11.19568 -8.57312,12.5508l-17.53285,3.30011c-7.18612,1.35512 -11.18771,-1.33121 -12.5508,-8.57312l-3.1925,-16.99081l0.00001,0z" class="st0" id="svg_38" stroke="null"/>
       <path fill="#212222" d="m187.50308,437.93002l-9.99998,2.91351l-12.39934,-10.4663l-8.93582,2.60661l3.78238,12.97726l-9.14706,2.6664l-10.85291,-37.22991l25.84691,-7.53686c6.54044,-1.90514 10.03187,-0.03986 11.95295,6.55639l1.48665,5.10561c1.75368,6.01035 0.21921,9.45794 -5.02988,11.45076l13.29611,10.95654l-0.00001,-0.00001zm-36.42083,-22.39136l3.1646,10.84893l13.13669,-3.83021c2.81785,-0.82104 3.40773,-1.97289 2.5827,-4.79473l-0.99243,-3.40374c-0.82104,-2.81785 -1.93702,-3.47548 -4.75487,-2.65444l-13.13669,3.83419z" class="st0" id="svg_39" stroke="null"/>
       <path fill="#212222" d="m221.61622,425.75387l-5.06177,-5.78317l-17.58467,6.26543l-0.26305,7.68034l-9.49779,3.38381l3.16062,-42.29567l10.07173,-3.58708l29.14304,30.78512l-9.9681,3.55121l-0.00001,0.00001zm-22.36346,-7.14626l12.26383,-4.36827l-11.62613,-13.14864l-0.6377,17.51691z" class="st0" id="svg_40" stroke="null"/>
       <path fill="#212222" d="m234.05144,421.09067l-13.71062,-36.27734l23.83814,-9.00756c8.08289,-3.05699 14.06534,-0.39856 17.13827,7.73614l4.30848,11.40293c3.07293,8.13869 0.34675,14.08128 -7.73614,17.13827l-23.83814,9.00756l0.00001,0zm6.0542,-10.93661l13.06096,-4.93423c3.57512,-1.35113 4.70306,-3.85013 3.35193,-7.42526l-3.91789,-10.36268c-1.35113,-3.57512 -3.85013,-4.70306 -7.42526,-3.35193l-13.06096,4.93423l7.99122,21.13986l0,0.00001z" class="st0" id="svg_41" stroke="null"/>
       <path fill="#212222" d="m281.83932,394.84121l22.28773,-7.76802l2.59067,7.42924l-31.28333,10.90473l-12.76602,-36.62011l30.76121,-10.72139l2.59067,7.42924l-21.76162,7.58468l2.42726,6.95894l19.66916,-6.85531l2.37146,6.79951l-19.66916,6.85531l2.78198,8.00318l-0.00001,0z" class="st0" id="svg_42" stroke="null"/>
       <path fill="#212222" d="m317.50686,382.63318l20.08765,-5.51215l2.22798,8.12275l-29.27855,8.03506l-10.25905,-37.39731l9.18691,-2.52291l8.03506,29.27456z" class="st0" id="svg_43" stroke="null"/>
       <path fill="#212222" d="m350.72722,374.86914l20.59383,-3.1367l1.26744,8.32601l-30.01589,4.56755l-5.83498,-38.33792l9.41808,-1.43483l4.57154,30.01589l-0.00002,0z" class="st0" id="svg_44" stroke="null"/>
       <path fill="#212222" d="m406.02805,381.28603l-2.3874,-7.30569l-18.63688,-1.13192l-3.25229,6.96292l-10.06375,-0.61379l19.49778,-37.66435l10.67356,0.64966l14.73095,39.74884l-10.56196,-0.64567l-0.00001,0zm-17.77199,-15.34473l12.9932,0.78916l-5.53606,-16.65601l-7.45714,15.86685z" class="st0" id="svg_45" stroke="null"/>
      </g>
     </g>
     <path fill="url(#svg_12)" d="m102.29796,259.61623l8.33,11.79751c-2.66241,7.9673 -4.81865,16.65601 -5.51215,25.15739l-16.09005,-18.29411c4.22877,-6.92705 8.73653,-13.19249 13.2722,-18.66079z" class="st2" id="svg_46" stroke="null"/>
     <path fill="url(#svg_11)" d="m125.33897,238.85501c-0.15943,0.26704 -5.49222,9.20286 -10.67356,21.75764l-6.24152,-7.88361c5.98245,-6.26145 11.81744,-10.9964 16.91508,-13.87403z" class="st3" id="svg_47" stroke="null"/>
     <path fill="url(#svg_10)" d="m166.56649,370.59254c-13.25227,4.76683 -26.72774,9.50178 -40.13545,13.79033c-0.7772,0.2511 -1.54643,0.49422 -2.31965,0.73734l-0.6098,0.19131c-2.11638,0.66959 -4.06934,1.27541 -5.95854,1.85333c-4.26065,1.29533 -8.14267,2.43523 -11.87324,3.48345c0,0 -0.23117,0.06776 -0.31088,0.09167c-1.46273,0.41849 -3.12076,0.93663 -5.02988,1.53447c-4.00956,1.25149 -9.00357,2.81387 -14.00556,3.95775c-0.62973,0.14747 -1.25946,0.28298 -1.89318,0.41451l-0.0558,0.01196c-0.58988,0.12754 -1.21562,0.24312 -1.79354,0.35074c-2.6664,0.48625 -5.08967,0.76923 -7.218,0.83699c-0.34675,0.01196 -0.6935,0.01594 -1.03627,0.01594c-1.06018,0 -2.03666,-0.05978 -2.92945,-0.17537c-13.19249,-39.94414 -3.66679,-79.68501 12.18013,-109.8125l19.159,25.16138l1.56636,2.06855l1.61419,2.11638l2.22798,2.92945l0.00399,0.00797c1.94499,4.59545 4.84654,8.76045 8.94379,12.26782c0.36269,0.31088 0.72539,0.61379 1.08808,0.90076l16.62413,21.83336c1.79354,2.31965 4.49979,3.72259 7.4133,3.85013c0.15943,0.00797 0.31487,0.01196 0.47429,0.01196c1.27541,0 2.57473,-0.2511 3.76245,-0.73734c0.58589,-0.23914 1.10402,-0.52212 1.56237,-0.77322c0.64966,-0.35871 1.20765,-0.6656 1.78955,-0.76923c0.51415,-0.09167 1.03627,-0.13551 1.54643,-0.13551c0.50618,0 1.00438,0.04384 1.45476,0.12356l0.37864,0.07971l0.08768,0.01993c0.40255,0.09566 0.78916,0.21921 1.15982,0.36668c1.40295,0.54603 2.63053,1.45077 3.55121,2.6106l8.58109,10.78516l0,-0.00002z" class="st4" id="svg_48" stroke="null"/>
     <path fill="url(#svg_9)" d="m178.3919,365.22388l0,0.91271l-11.02429,-13.31604c-0.78517,-0.94858 -1.33918,-2.04464 -1.64607,-3.26424c-0.35074,-1.38302 -0.35472,-2.84974 -0.01594,-4.21283l0.03587,-0.1395c0.00797,-0.03986 0.01993,-0.0837 0.04384,-0.15544c0.36668,-1.31526 0.94061,-2.37544 1.65006,-3.06496c1.50259,-1.43483 2.51893,-3.2204 2.93343,-5.15344c0.63372,-2.89358 -0.08768,-6.00637 -1.92905,-8.32203l-6.46472,-8.1626c7.10242,-15.05378 9.63729,-37.15817 4.44001,-61.73765c-0.6656,-3.14467 -1.33121,-6.26942 -1.99681,-9.37424c-0.39458,-1.84535 -0.78916,-3.68274 -1.17975,-5.51215c-0.31088,-1.46273 -0.61778,-2.91351 -0.92866,-4.36428c-0.59785,-2.83379 -1.19171,-5.64367 -1.76564,-8.42964c-0.41451,-2.00478 -0.82104,-3.9976 -1.21961,-5.97847c-0.79713,-3.95376 -1.55042,-7.86766 -2.25986,-11.73374c0,-0.00399 0,-0.01196 -0.00399,-0.01594c-0.34675,-1.92507 -0.68952,-3.84216 -1.01235,-5.74331c0,-0.00399 0,-0.01196 -0.00797,-0.01594c-0.31487,-1.90912 -0.62973,-3.79433 -0.92068,-5.67157c0,-0.01196 0,-0.01594 -0.00797,-0.02391c-0.43842,-2.81785 -0.83699,-5.6078 -1.19968,-8.36587c0,-0.01196 0,-0.02391 -0.00399,-0.03189c-0.47429,-3.68274 -0.87684,-7.30967 -1.18772,-10.88878c-2.21602,-25.55197 0.24711,-48.40965 12.71022,-67.87554c-0.19928,0.61778 -11.50656,36.03023 16.98682,85.56383c4.70705,8.18253 9.79273,16.53246 14.88639,25.04181l-2.64248,7.15822l-2.42327,6.57631l-1.90514,5.15344l-2.35552,6.39298c-0.94858,2.56277 -1.30331,5.35671 -1.03228,8.06695c0.10363,1.08011 0.31487,2.18413 0.62973,3.2762l12.83776,44.28052c0.12754,0.43842 0.10761,0.9167 -0.05181,1.33918l-21.96888,57.79186l0,-0.00001z" class="st5" id="svg_49" stroke="null"/>
     <path fill="url(#svg_8)" d="m235.74135,330.05853c-0.00399,0.12754 -0.00797,0.25508 -0.01196,0.38262c-0.02391,0.73734 -0.0558,1.47867 -0.09566,2.22c-0.01196,0.20725 -0.0279,0.41849 -0.03986,0.62575c-0.03986,0.66162 -0.08768,1.32722 -0.1395,1.98884c-0.02391,0.2511 -0.04384,0.49821 -0.06377,0.7493c-0.05978,0.62575 -0.12356,1.25548 -0.19131,1.88521c-0.0279,0.27102 -0.05978,0.53806 -0.09167,0.8051c-0.07174,0.62176 -0.15544,1.24352 -0.23914,1.86927c-0.03986,0.26704 -0.07174,0.53408 -0.1116,0.80111c-0.09566,0.65365 -0.20327,1.31128 -0.31487,1.96492c-0.03986,0.23117 -0.07573,0.46233 -0.11558,0.6935c-0.12754,0.71742 -0.25907,1.43483 -0.40654,2.15623c-7.80389,2.80988 -15.55996,5.62375 -23.25225,8.41768c-3.47947,1.26345 -6.95495,2.5269 -10.43442,3.79035l15.69547,-44.86242c0.17138,-0.49023 0.51016,-0.89677 0.96851,-1.14787l16.18172,-9.0235c1.92507,8.78436 2.91351,17.68431 2.66241,26.6839l0.00002,0.00001z" class="st6" id="svg_50" stroke="null"/>
     <path fill="url(#svg_7)" d="m217.10049,226.08899l-1.31925,3.42367c-0.74532,-1.34316 -1.49063,-2.68632 -2.23196,-4.03347l12.42326,-32.27177c0.26305,-0.67756 0.92866,-1.13591 1.65404,-1.13591c0.21921,0 0.43045,0.03986 0.63372,0.11558c0.71742,0.279 1.17178,0.98047 1.12794,1.75368c-0.01196,0.18334 -0.05181,0.36668 -0.11558,0.53408l-12.17216,31.61414l-0.00001,0z" class="st7" id="svg_51" stroke="null"/>
     <path fill="url(#svg_6)" d="m244.25867,200.24208l-18.36984,47.70419c-0.72937,-1.36708 -1.46672,-2.73017 -2.20805,-4.09724l17.28176,-44.87837c0.25907,-0.67756 0.92068,-1.13192 1.64607,-1.13192c0.21921,0 0.43045,0.03986 0.63372,0.11558c0.90873,0.35472 1.36708,1.37903 1.01634,2.28776z" class="st8" id="svg_52" stroke="null"/>
     <path fill="url(#svg_5)" d="m259.24071,206.0093l-21.08805,54.77871c-0.26704,0.68952 -0.9167,1.13591 -1.65404,1.13591c-0.21522,0 -0.43045,-0.03986 -0.63372,-0.11957c-0.90873,-0.34675 -1.36309,-1.37505 -1.01235,-2.28377l10.34275,-26.86325l1.59027,-4.12514l9.15901,-23.7943c0.25907,-0.67756 0.92068,-1.13192 1.64607,-1.13192c0.21921,0 0.43045,0.03986 0.63372,0.11558c0.91271,0.35472 1.36708,1.37903 1.01634,2.28776l0,-0.00001z" class="st9" id="svg_53" stroke="null"/>
     <path fill="url(#svg_4)" d="m274.19087,210.4254c-0.19131,-0.43045 -0.54205,-0.76524 -0.98047,-0.93663c-0.20327,-0.07573 -0.41451,-0.11558 -0.63372,-0.11558c-0.72539,0 -1.39099,0.45835 -1.65404,1.13591l-6.79553,17.65641l-1.51853,3.94579l-12.77399,33.17651c-0.35074,0.90873 0.10363,1.93702 1.01235,2.28377c0.20725,0.07971 0.41849,0.11957 0.6377,0.11957c0.72539,0 1.387,-0.45436 1.64607,-1.13192l16.10599,-41.82935l4.98604,-12.95335c0.17138,-0.43842 0.15943,-0.92068 -0.03189,-1.35113l0.00002,0zm0,0c-0.19131,-0.43045 -0.54205,-0.76524 -0.98047,-0.93663c-0.20327,-0.07573 -0.41451,-0.11558 -0.63372,-0.11558c-0.72539,0 -1.39099,0.45835 -1.65404,1.13591l-6.79553,17.65641l-1.51853,3.94579l-12.77399,33.17651c-0.35074,0.90873 0.10363,1.93702 1.01235,2.28377c0.20725,0.07971 0.41849,0.11957 0.6377,0.11957c0.72539,0 1.387,-0.45436 1.64607,-1.13192l16.10599,-41.82935l4.98604,-12.95335c0.17138,-0.43842 0.15943,-0.92068 -0.03189,-1.35113l0.00002,0zm0,0c-0.19131,-0.43045 -0.54205,-0.76524 -0.98047,-0.93663c-0.20327,-0.07573 -0.41451,-0.11558 -0.63372,-0.11558c-0.72539,0 -1.39099,0.45835 -1.65404,1.13591l-6.79553,17.65641l-1.51853,3.94579l-12.77399,33.17651c-0.35074,0.90873 0.10363,1.93702 1.01235,2.28377c0.20725,0.07971 0.41849,0.11957 0.6377,0.11957c0.72539,0 1.387,-0.45436 1.64607,-1.13192l16.10599,-41.82935l4.98604,-12.95335c0.17138,-0.43842 0.15943,-0.92068 -0.03189,-1.35113l0.00002,0zm0,0c-0.19131,-0.43045 -0.54205,-0.76524 -0.98047,-0.93663c-0.20327,-0.07573 -0.41451,-0.11558 -0.63372,-0.11558c-0.72539,0 -1.39099,0.45835 -1.65404,1.13591l-6.79553,17.65641l-1.51853,3.94579l-12.77399,33.17651c-0.35074,0.90873 0.10363,1.93702 1.01235,2.28377c0.20725,0.07971 0.41849,0.11957 0.6377,0.11957c0.72539,0 1.387,-0.45436 1.64607,-1.13192l16.10599,-41.82935l4.98604,-12.95335c0.17138,-0.43842 0.15943,-0.92068 -0.03189,-1.35113l0.00002,0zm0,0c-0.19131,-0.43045 -0.54205,-0.76524 -0.98047,-0.93663c-0.20327,-0.07573 -0.41451,-0.11558 -0.63372,-0.11558c-0.72539,0 -1.39099,0.45835 -1.65404,1.13591l-6.79553,17.65641l-1.51853,3.94579l-12.77399,33.17651c-0.35074,0.90873 0.10363,1.93702 1.01235,2.28377c0.20725,0.07971 0.41849,0.11957 0.6377,0.11957c0.72539,0 1.387,-0.45436 1.64607,-1.13192l16.10599,-41.82935l4.98604,-12.95335c0.17138,-0.43842 0.15943,-0.92068 -0.03189,-1.35113l0.00002,0zm0,0c-0.19131,-0.43045 -0.54205,-0.76524 -0.98047,-0.93663c-0.20327,-0.07573 -0.41451,-0.11558 -0.63372,-0.11558c-0.72539,0 -1.39099,0.45835 -1.65404,1.13591l-6.79553,17.65641l-1.51853,3.94579l-12.77399,33.17651c-0.35074,0.90873 0.10363,1.93702 1.01235,2.28377c0.20725,0.07971 0.41849,0.11957 0.6377,0.11957c0.72539,0 1.387,-0.45436 1.64607,-1.13192l16.10599,-41.82935l4.98604,-12.95335c0.17138,-0.43842 0.15943,-0.92068 -0.03189,-1.35113l0.00002,0zm0,0c-0.19131,-0.43045 -0.54205,-0.76524 -0.98047,-0.93663c-0.20327,-0.07573 -0.41451,-0.11558 -0.63372,-0.11558c-0.72539,0 -1.39099,0.45835 -1.65404,1.13591l-6.79553,17.65641l-1.51853,3.94579l-12.77399,33.17651c-0.35074,0.90873 0.10363,1.93702 1.01235,2.28377c0.20725,0.07971 0.41849,0.11957 0.6377,0.11957c0.72539,0 1.387,-0.45436 1.64607,-1.13192l16.10599,-41.82935l4.98604,-12.95335c0.17138,-0.43842 0.15943,-0.92068 -0.03189,-1.35113l0.00002,0zm0,0c-0.19131,-0.43045 -0.54205,-0.76524 -0.98047,-0.93663c-0.20327,-0.07573 -0.41451,-0.11558 -0.63372,-0.11558c-0.72539,0 -1.39099,0.45835 -1.65404,1.13591l-6.79553,17.65641l-1.51853,3.94579l-12.77399,33.17651c-0.35074,0.90873 0.10363,1.93702 1.01235,2.28377c0.20725,0.07971 0.41849,0.11957 0.6377,0.11957c0.72539,0 1.387,-0.45436 1.64607,-1.13192l16.10599,-41.82935l4.98604,-12.95335c0.17138,-0.43842 0.15943,-0.92068 -0.03189,-1.35113l0.00002,0zm0,0c-0.19131,-0.43045 -0.54205,-0.76524 -0.98047,-0.93663c-0.20327,-0.07573 -0.41451,-0.11558 -0.63372,-0.11558c-0.72539,0 -1.39099,0.45835 -1.65404,1.13591l-6.79553,17.65641l-1.51853,3.94579l-12.77399,33.17651c-0.35074,0.90873 0.10363,1.93702 1.01235,2.28377c0.20725,0.07971 0.41849,0.11957 0.6377,0.11957c0.72539,0 1.387,-0.45436 1.64607,-1.13192l16.10599,-41.82935l4.98604,-12.95335c0.17138,-0.43842 0.15943,-0.92068 -0.03189,-1.35113l0.00002,0zm0,0c-0.19131,-0.43045 -0.54205,-0.76524 -0.98047,-0.93663c-0.20327,-0.07573 -0.41451,-0.11558 -0.63372,-0.11558c-0.72539,0 -1.39099,0.45835 -1.65404,1.13591l-6.79553,17.65641l-1.51853,3.94579l-12.77399,33.17651c-0.35074,0.90873 0.10363,1.93702 1.01235,2.28377c0.20725,0.07971 0.41849,0.11957 0.6377,0.11957c0.72539,0 1.387,-0.45436 1.64607,-1.13192l16.10599,-41.82935l4.98604,-12.95335c0.17138,-0.43842 0.15943,-0.92068 -0.03189,-1.35113l0.00002,0zm0,0c-0.19131,-0.43045 -0.54205,-0.76524 -0.98047,-0.93663c-0.20327,-0.07573 -0.41451,-0.11558 -0.63372,-0.11558c-0.72539,0 -1.39099,0.45835 -1.65404,1.13591l-6.79553,17.65641l-1.51853,3.94579l-12.77399,33.17651c-0.35074,0.90873 0.10363,1.93702 1.01235,2.28377c0.20725,0.07971 0.41849,0.11957 0.6377,0.11957c0.72539,0 1.387,-0.45436 1.64607,-1.13192l16.10599,-41.82935l4.98604,-12.95335c0.17138,-0.43842 0.15943,-0.92068 -0.03189,-1.35113l0.00002,0zm0,0c-0.19131,-0.43045 -0.54205,-0.76524 -0.98047,-0.93663c-0.20327,-0.07573 -0.41451,-0.11558 -0.63372,-0.11558c-0.72539,0 -1.39099,0.45835 -1.65404,1.13591l-6.79553,17.65641l-1.51853,3.94579l-12.77399,33.17651c-0.35074,0.90873 0.10363,1.93702 1.01235,2.28377c0.20725,0.07971 0.41849,0.11957 0.6377,0.11957c0.72539,0 1.387,-0.45436 1.64607,-1.13192l16.10599,-41.82935l4.98604,-12.95335c0.17138,-0.43842 0.15943,-0.92068 -0.03189,-1.35113l0.00002,0zm0,0c-0.19131,-0.43045 -0.54205,-0.76524 -0.98047,-0.93663c-0.20327,-0.07573 -0.41451,-0.11558 -0.63372,-0.11558c-0.72539,0 -1.39099,0.45835 -1.65404,1.13591l-6.79553,17.65641l-1.51853,3.94579l-12.77399,33.17651c-0.35074,0.90873 0.10363,1.93702 1.01235,2.28377c0.20725,0.07971 0.41849,0.11957 0.6377,0.11957c0.72539,0 1.387,-0.45436 1.64607,-1.13192l16.10599,-41.82935l4.98604,-12.95335c0.17138,-0.43842 0.15943,-0.92068 -0.03189,-1.35113l0.00002,0zm0,0c-0.19131,-0.43045 -0.54205,-0.76524 -0.98047,-0.93663c-0.20327,-0.07573 -0.41451,-0.11558 -0.63372,-0.11558c-0.72539,0 -1.39099,0.45835 -1.65404,1.13591l-6.79553,17.65641l-1.51853,3.94579l-12.77399,33.17651c-0.35074,0.90873 0.10363,1.93702 1.01235,2.28377c0.20725,0.07971 0.41849,0.11957 0.6377,0.11957c0.72539,0 1.387,-0.45436 1.64607,-1.13192l16.10599,-41.82935l4.98604,-12.95335c0.17138,-0.43842 0.15943,-0.92068 -0.03189,-1.35113l0.00002,0zm0,0c-0.19131,-0.43045 -0.54205,-0.76524 -0.98047,-0.93663c-0.20327,-0.07573 -0.41451,-0.11558 -0.63372,-0.11558c-0.72539,0 -1.39099,0.45835 -1.65404,1.13591l-6.79553,17.65641l-1.51853,3.94579l-12.77399,33.17651c-0.35074,0.90873 0.10363,1.93702 1.01235,2.28377c0.20725,0.07971 0.41849,0.11957 0.6377,0.11957c0.72539,0 1.387,-0.45436 1.64607,-1.13192l16.10599,-41.82935l4.98604,-12.95335c0.17138,-0.43842 0.15943,-0.92068 -0.03189,-1.35113l0.00002,0zm0,0c-0.19131,-0.43045 -0.54205,-0.76524 -0.98047,-0.93663c-0.20327,-0.07573 -0.41451,-0.11558 -0.63372,-0.11558c-0.72539,0 -1.39099,0.45835 -1.65404,1.13591l-6.79553,17.65641l-1.51853,3.94579l-12.77399,33.17651c-0.35074,0.90873 0.10363,1.93702 1.01235,2.28377c0.20725,0.07971 0.41849,0.11957 0.6377,0.11957c0.72539,0 1.387,-0.45436 1.64607,-1.13192l16.10599,-41.82935l4.98604,-12.95335c0.17138,-0.43842 0.15943,-0.92068 -0.03189,-1.35113l0.00002,0zm0,0c-0.19131,-0.43045 -0.54205,-0.76524 -0.98047,-0.93663c-0.20327,-0.07573 -0.41451,-0.11558 -0.63372,-0.11558c-0.72539,0 -1.39099,0.45835 -1.65404,1.13591l-6.79553,17.65641l-1.51853,3.94579l-12.77399,33.17651c-0.35074,0.90873 0.10363,1.93702 1.01235,2.28377c0.20725,0.07971 0.41849,0.11957 0.6377,0.11957c0.72539,0 1.387,-0.45436 1.64607,-1.13192l16.10599,-41.82935l4.98604,-12.95335c0.17138,-0.43842 0.15943,-0.92068 -0.03189,-1.35113l0.00002,0zm0,0c-0.19131,-0.43045 -0.54205,-0.76524 -0.98047,-0.93663c-0.20327,-0.07573 -0.41451,-0.11558 -0.63372,-0.11558c-0.72539,0 -1.39099,0.45835 -1.65404,1.13591l-6.79553,17.65641l-1.51853,3.94579l-12.77399,33.17651c-0.35074,0.90873 0.10363,1.93702 1.01235,2.28377c0.20725,0.07971 0.41849,0.11957 0.6377,0.11957c0.72539,0 1.387,-0.45436 1.64607,-1.13192l16.10599,-41.82935l4.98604,-12.95335c0.17138,-0.43842 0.15943,-0.92068 -0.03189,-1.35113l0.00002,0zm13.83816,-15.69149c-0.82901,-0.6656 -1.7776,-1.21164 -2.82981,-1.59824l-35.13745,-12.95733l-8.38181,-3.09286l-12.07651,-4.45197c-1.37903,-0.51016 -2.79792,-0.69749 -4.17696,-0.60582c-1.15185,0.07573 -2.27979,0.35074 -3.32801,0.8051c-1.88521,0.80909 -3.52331,2.18812 -4.63531,4.00956c-0.34277,0.554 -0.62973,1.15185 -0.86489,1.78557l-4.04942,10.97647l-7.45714,20.21918c2.35153,4.49979 4.76285,8.94777 7.19808,13.37583l7.03466,-18.2702l4.79075,-12.4392c0.57792,-1.49462 2.00478,-2.41132 3.51135,-2.41132c0.45038,0 0.90873,0.07971 1.35113,0.2511c1.55839,0.60183 2.49103,2.12833 2.39936,3.71462c-0.01993,0.38262 -0.09964,0.76923 -0.24312,1.14787l-12.17216,31.61414l-1.92108,4.97807c1.80948,3.26026 3.61099,6.51254 5.38859,9.76483l2.71422,-7.04662l1.69788,-4.40812l1.88521,-4.89836l10.37463,-26.93898c0.57393,-1.49462 2.00079,-2.41132 3.50737,-2.41132c0.45038,0 0.90873,0.07971 1.35113,0.2511c1.93702,0.7493 2.90554,2.92546 2.16022,4.86249l-8.9956,23.35987l-1.70984,4.44001l-1.64209,4.26464l-6.64806,17.25784c7.48106,14.17694 14.20484,28.52128 18.66478,43.72253l5.87883,-3.28019c6.75567,-3.77042 11.94099,-9.8286 14.61935,-17.08646l2.99322,-8.1068l5.91868,-16.03824l1.42686,-3.86608l4.61538,-12.50297l1.4149,-3.83419l0.58589,-1.59027l7.95535,-21.55836c1.55042,-4.1929 0.14348,-8.76045 -3.16859,-11.40692l0.00003,0zm-48.01905,66.77152c-0.7493,1.94101 -2.92546,2.90554 -4.86249,2.16022s-2.90155,-2.92148 -2.15623,-4.86249l10.34275,-26.86325l1.59027,-4.12514l1.51056,-3.92586l7.64845,-19.86446c0.57393,-1.49462 2.00079,-2.41132 3.50737,-2.41132c0.45038,0 0.90873,0.07971 1.35113,0.2511c1.94101,0.7493 2.90554,2.92546 2.16022,4.86249l-6.6361,17.23792l-1.33121,3.45555l-1.5544,4.03347l-11.57033,30.05177l0.00001,0zm36.07408,-49.01148l-4.98604,12.95335l-0.93264,2.41929l-1.4986,3.89398l-13.67475,35.5121c-0.74532,1.94101 -2.92148,2.90554 -4.8585,2.16022c-1.94101,-0.74532 -2.90554,-2.92148 -2.16022,-4.86249l12.77399,-33.17253l1.51853,-3.94977l1.12395,-2.91749l5.67556,-14.73892c0.57792,-1.49462 2.00478,-2.41132 3.51135,-2.41132c0.45038,0 0.90873,0.07971 1.35113,0.2511c1.93702,0.7493 2.90554,2.92546 2.15623,4.86249l0.00001,-0.00001zm-2.87365,-3.00518c-0.20327,-0.07573 -0.41451,-0.11558 -0.63372,-0.11558c-0.72539,0 -1.39099,0.45835 -1.65404,1.13591l-6.79553,17.65641l-1.51853,3.94579l-12.77399,33.17651c-0.35074,0.90873 0.10363,1.93702 1.01235,2.28377c0.20725,0.07971 0.41849,0.11957 0.6377,0.11957c0.72539,0 1.387,-0.45436 1.64607,-1.13192l16.10599,-41.82935l4.98604,-12.95335c0.17138,-0.43842 0.15943,-0.92068 -0.03189,-1.35113c-0.19131,-0.43045 -0.54205,-0.76524 -0.98047,-0.93663l0.00002,0zm0.98047,0.93663c-0.19131,-0.43045 -0.54205,-0.76524 -0.98047,-0.93663c-0.20327,-0.07573 -0.41451,-0.11558 -0.63372,-0.11558c-0.72539,0 -1.39099,0.45835 -1.65404,1.13591l-6.79553,17.65641l-1.51853,3.94579l-12.77399,33.17651c-0.35074,0.90873 0.10363,1.93702 1.01235,2.28377c0.20725,0.07971 0.41849,0.11957 0.6377,0.11957c0.72539,0 1.387,-0.45436 1.64607,-1.13192l16.10599,-41.82935l4.98604,-12.95335c0.17138,-0.43842 0.15943,-0.92068 -0.03189,-1.35113l0.00002,0zm0,0c-0.19131,-0.43045 -0.54205,-0.76524 -0.98047,-0.93663c-0.20327,-0.07573 -0.41451,-0.11558 -0.63372,-0.11558c-0.72539,0 -1.39099,0.45835 -1.65404,1.13591l-6.79553,17.65641l-1.51853,3.94579l-12.77399,33.17651c-0.35074,0.90873 0.10363,1.93702 1.01235,2.28377c0.20725,0.07971 0.41849,0.11957 0.6377,0.11957c0.72539,0 1.387,-0.45436 1.64607,-1.13192l16.10599,-41.82935l4.98604,-12.95335c0.17138,-0.43842 0.15943,-0.92068 -0.03189,-1.35113l0.00002,0zm0,0c-0.19131,-0.43045 -0.54205,-0.76524 -0.98047,-0.93663c-0.20327,-0.07573 -0.41451,-0.11558 -0.63372,-0.11558c-0.72539,0 -1.39099,0.45835 -1.65404,1.13591l-6.79553,17.65641l-1.51853,3.94579l-12.77399,33.17651c-0.35074,0.90873 0.10363,1.93702 1.01235,2.28377c0.20725,0.07971 0.41849,0.11957 0.6377,0.11957c0.72539,0 1.387,-0.45436 1.64607,-1.13192l16.10599,-41.82935l4.98604,-12.95335c0.17138,-0.43842 0.15943,-0.92068 -0.03189,-1.35113l0.00002,0zm0,0c-0.19131,-0.43045 -0.54205,-0.76524 -0.98047,-0.93663c-0.20327,-0.07573 -0.41451,-0.11558 -0.63372,-0.11558c-0.72539,0 -1.39099,0.45835 -1.65404,1.13591l-6.79553,17.65641l-1.51853,3.94579l-12.77399,33.17651c-0.35074,0.90873 0.10363,1.93702 1.01235,2.28377c0.20725,0.07971 0.41849,0.11957 0.6377,0.11957c0.72539,0 1.387,-0.45436 1.64607,-1.13192l16.10599,-41.82935l4.98604,-12.95335c0.17138,-0.43842 0.15943,-0.92068 -0.03189,-1.35113l0.00002,0zm0,0c-0.19131,-0.43045 -0.54205,-0.76524 -0.98047,-0.93663c-0.20327,-0.07573 -0.41451,-0.11558 -0.63372,-0.11558c-0.72539,0 -1.39099,0.45835 -1.65404,1.13591l-6.79553,17.65641l-1.51853,3.94579l-12.77399,33.17651c-0.35074,0.90873 0.10363,1.93702 1.01235,2.28377c0.20725,0.07971 0.41849,0.11957 0.6377,0.11957c0.72539,0 1.387,-0.45436 1.64607,-1.13192l16.10599,-41.82935l4.98604,-12.95335c0.17138,-0.43842 0.15943,-0.92068 -0.03189,-1.35113l0.00002,0zm0,0c-0.19131,-0.43045 -0.54205,-0.76524 -0.98047,-0.93663c-0.20327,-0.07573 -0.41451,-0.11558 -0.63372,-0.11558c-0.72539,0 -1.39099,0.45835 -1.65404,1.13591l-6.79553,17.65641l-1.51853,3.94579l-12.77399,33.17651c-0.35074,0.90873 0.10363,1.93702 1.01235,2.28377c0.20725,0.07971 0.41849,0.11957 0.6377,0.11957c0.72539,0 1.387,-0.45436 1.64607,-1.13192l16.10599,-41.82935l4.98604,-12.95335c0.17138,-0.43842 0.15943,-0.92068 -0.03189,-1.35113l0.00002,0zm0,0c-0.19131,-0.43045 -0.54205,-0.76524 -0.98047,-0.93663c-0.20327,-0.07573 -0.41451,-0.11558 -0.63372,-0.11558c-0.72539,0 -1.39099,0.45835 -1.65404,1.13591l-6.79553,17.65641l-1.51853,3.94579l-12.77399,33.17651c-0.35074,0.90873 0.10363,1.93702 1.01235,2.28377c0.20725,0.07971 0.41849,0.11957 0.6377,0.11957c0.72539,0 1.387,-0.45436 1.64607,-1.13192l16.10599,-41.82935l4.98604,-12.95335c0.17138,-0.43842 0.15943,-0.92068 -0.03189,-1.35113l0.00002,0zm0,0c-0.19131,-0.43045 -0.54205,-0.76524 -0.98047,-0.93663c-0.20327,-0.07573 -0.41451,-0.11558 -0.63372,-0.11558c-0.72539,0 -1.39099,0.45835 -1.65404,1.13591l-6.79553,17.65641l-1.51853,3.94579l-12.77399,33.17651c-0.35074,0.90873 0.10363,1.93702 1.01235,2.28377c0.20725,0.07971 0.41849,0.11957 0.6377,0.11957c0.72539,0 1.387,-0.45436 1.64607,-1.13192l16.10599,-41.82935l4.98604,-12.95335c0.17138,-0.43842 0.15943,-0.92068 -0.03189,-1.35113l0.00002,0zm0,0c-0.19131,-0.43045 -0.54205,-0.76524 -0.98047,-0.93663c-0.20327,-0.07573 -0.41451,-0.11558 -0.63372,-0.11558c-0.72539,0 -1.39099,0.45835 -1.65404,1.13591l-6.79553,17.65641l-1.51853,3.94579l-12.77399,33.17651c-0.35074,0.90873 0.10363,1.93702 1.01235,2.28377c0.20725,0.07971 0.41849,0.11957 0.6377,0.11957c0.72539,0 1.387,-0.45436 1.64607,-1.13192l16.10599,-41.82935l4.98604,-12.95335c0.17138,-0.43842 0.15943,-0.92068 -0.03189,-1.35113l0.00002,0zm0,0c-0.19131,-0.43045 -0.54205,-0.76524 -0.98047,-0.93663c-0.20327,-0.07573 -0.41451,-0.11558 -0.63372,-0.11558c-0.72539,0 -1.39099,0.45835 -1.65404,1.13591l-6.79553,17.65641l-1.51853,3.94579l-12.77399,33.17651c-0.35074,0.90873 0.10363,1.93702 1.01235,2.28377c0.20725,0.07971 0.41849,0.11957 0.6377,0.11957c0.72539,0 1.387,-0.45436 1.64607,-1.13192l16.10599,-41.82935l4.98604,-12.95335c0.17138,-0.43842 0.15943,-0.92068 -0.03189,-1.35113l0.00002,0zm0,0c-0.19131,-0.43045 -0.54205,-0.76524 -0.98047,-0.93663c-0.20327,-0.07573 -0.41451,-0.11558 -0.63372,-0.11558c-0.72539,0 -1.39099,0.45835 -1.65404,1.13591l-6.79553,17.65641l-1.51853,3.94579l-12.77399,33.17651c-0.35074,0.90873 0.10363,1.93702 1.01235,2.28377c0.20725,0.07971 0.41849,0.11957 0.6377,0.11957c0.72539,0 1.387,-0.45436 1.64607,-1.13192l16.10599,-41.82935l4.98604,-12.95335c0.17138,-0.43842 0.15943,-0.92068 -0.03189,-1.35113l0.00002,0zm0,0c-0.19131,-0.43045 -0.54205,-0.76524 -0.98047,-0.93663c-0.20327,-0.07573 -0.41451,-0.11558 -0.63372,-0.11558c-0.72539,0 -1.39099,0.45835 -1.65404,1.13591l-6.79553,17.65641l-1.51853,3.94579l-12.77399,33.17651c-0.35074,0.90873 0.10363,1.93702 1.01235,2.28377c0.20725,0.07971 0.41849,0.11957 0.6377,0.11957c0.72539,0 1.387,-0.45436 1.64607,-1.13192l16.10599,-41.82935l4.98604,-12.95335c0.17138,-0.43842 0.15943,-0.92068 -0.03189,-1.35113l0.00002,0zm0,0c-0.19131,-0.43045 -0.54205,-0.76524 -0.98047,-0.93663c-0.20327,-0.07573 -0.41451,-0.11558 -0.63372,-0.11558c-0.72539,0 -1.39099,0.45835 -1.65404,1.13591l-6.79553,17.65641l-1.51853,3.94579l-12.77399,33.17651c-0.35074,0.90873 0.10363,1.93702 1.01235,2.28377c0.20725,0.07971 0.41849,0.11957 0.6377,0.11957c0.72539,0 1.387,-0.45436 1.64607,-1.13192l16.10599,-41.82935l4.98604,-12.95335c0.17138,-0.43842 0.15943,-0.92068 -0.03189,-1.35113l0.00002,0zm0,0c-0.19131,-0.43045 -0.54205,-0.76524 -0.98047,-0.93663c-0.20327,-0.07573 -0.41451,-0.11558 -0.63372,-0.11558c-0.72539,0 -1.39099,0.45835 -1.65404,1.13591l-6.79553,17.65641l-1.51853,3.94579l-12.77399,33.17651c-0.35074,0.90873 0.10363,1.93702 1.01235,2.28377c0.20725,0.07971 0.41849,0.11957 0.6377,0.11957c0.72539,0 1.387,-0.45436 1.64607,-1.13192l16.10599,-41.82935l4.98604,-12.95335c0.17138,-0.43842 0.15943,-0.92068 -0.03189,-1.35113l0.00002,0zm0,0c-0.19131,-0.43045 -0.54205,-0.76524 -0.98047,-0.93663c-0.20327,-0.07573 -0.41451,-0.11558 -0.63372,-0.11558c-0.72539,0 -1.39099,0.45835 -1.65404,1.13591l-6.79553,17.65641l-1.51853,3.94579l-12.77399,33.17651c-0.35074,0.90873 0.10363,1.93702 1.01235,2.28377c0.20725,0.07971 0.41849,0.11957 0.6377,0.11957c0.72539,0 1.387,-0.45436 1.64607,-1.13192l16.10599,-41.82935l4.98604,-12.95335c0.17138,-0.43842 0.15943,-0.92068 -0.03189,-1.35113l0.00002,0zm0,0c-0.19131,-0.43045 -0.54205,-0.76524 -0.98047,-0.93663c-0.20327,-0.07573 -0.41451,-0.11558 -0.63372,-0.11558c-0.72539,0 -1.39099,0.45835 -1.65404,1.13591l-6.79553,17.65641l-1.51853,3.94579l-12.77399,33.17651c-0.35074,0.90873 0.10363,1.93702 1.01235,2.28377c0.20725,0.07971 0.41849,0.11957 0.6377,0.11957c0.72539,0 1.387,-0.45436 1.64607,-1.13192l16.10599,-41.82935l4.98604,-12.95335c0.17138,-0.43842 0.15943,-0.92068 -0.03189,-1.35113l0.00002,0zm0,0c-0.19131,-0.43045 -0.54205,-0.76524 -0.98047,-0.93663c-0.20327,-0.07573 -0.41451,-0.11558 -0.63372,-0.11558c-0.72539,0 -1.39099,0.45835 -1.65404,1.13591l-6.79553,17.65641l-1.51853,3.94579l-12.77399,33.17651c-0.35074,0.90873 0.10363,1.93702 1.01235,2.28377c0.20725,0.07971 0.41849,0.11957 0.6377,0.11957c0.72539,0 1.387,-0.45436 1.64607,-1.13192l16.10599,-41.82935l4.98604,-12.95335c0.17138,-0.43842 0.15943,-0.92068 -0.03189,-1.35113l0.00002,0zm0,0c-0.19131,-0.43045 -0.54205,-0.76524 -0.98047,-0.93663c-0.20327,-0.07573 -0.41451,-0.11558 -0.63372,-0.11558c-0.72539,0 -1.39099,0.45835 -1.65404,1.13591l-6.79553,17.65641l-1.51853,3.94579l-12.77399,33.17651c-0.35074,0.90873 0.10363,1.93702 1.01235,2.28377c0.20725,0.07971 0.41849,0.11957 0.6377,0.11957c0.72539,0 1.387,-0.45436 1.64607,-1.13192l16.10599,-41.82935l4.98604,-12.95335c0.17138,-0.43842 0.15943,-0.92068 -0.03189,-1.35113l0.00002,0z" class="st10" id="svg_54" stroke="null"/>
     <path fill="url(#svg_3)" d="m366.16761,306.81823c-18.14266,1.7497 -35.47224,7.11438 -52.32355,12.33159l-3.06496,0.94858c-19.96011,6.16181 -39.9003,12.96132 -59.60134,19.9362c0.21124,-3.76245 0.26704,-7.71222 0.15544,-11.85729c-0.30291,-11.2714 -2.11638,-21.93699 -4.98206,-32.20401l6.28935,-3.50737c7.16619,-4.00159 12.67834,-10.44239 15.51612,-18.13867l14.95414,-40.51408l9.95614,-26.98282c1.81347,-4.90234 0.29095,-10.39058 -3.79035,-13.65084c-1.02033,-0.81706 -2.16022,-1.46273 -3.3878,-1.91311l-35.13745,-12.95733l-8.38181,-3.09286l-12.07252,-4.45197c-1.35113,-0.49821 -2.76205,-0.75329 -4.19688,-0.75329c-0.26704,0 -0.53806,0.01196 -0.8051,0.0279c-1.37903,0.09167 -2.7222,0.41451 -3.98166,0.96453c-2.32363,0.99243 -4.24073,2.65444 -5.54403,4.79075c-0.40654,0.65365 -0.75329,1.37505 -1.04025,2.14428l-10.88081,29.49378c-12.01672,-23.324 -22.10439,-47.99913 -24.0454,-76.8552c-5.15743,-76.7157 51.39888,-121.30311 52.87756,-122.447c0.00399,-0.00399 0.00797,-0.00399 0.00797,-0.00399c-0.96453,1.8055 -49.13504,92.14413 31.05216,164.25243c-0.15943,-0.45835 -10.6058,-30.19525 11.43482,-49.64121c22.20802,-19.59343 20.25106,-32.33554 14.04541,-49.97202c0,0 28.41367,10.12752 10.44638,58.79225c-17.95932,48.66473 11.10799,81.65392 44.424,130.97229c5.48026,8.11477 10.60979,17.24589 15.10161,27.0426c-0.01993,-0.04384 -0.03189,-0.07971 -0.04384,-0.1116c0.31487,0.67357 0.61778,1.34715 0.92068,2.02072c0.31487,0.70546 0.62575,1.4149 0.93264,2.12833s0.6098,1.42686 0.91271,2.14428c0.23914,0.56995 0.47828,1.15185 0.71343,1.72578c0.12356,0.29892 0.24312,0.59386 0.36269,0.89278c0.22718,0.57393 0.45835,1.14388 0.68553,1.7218c0.32682,0.84894 0.65763,1.70586 0.98047,2.56277c0.22718,0.61379 0.45835,1.23156 0.68553,1.84535c0.26704,0.74532 0.53408,1.48665 0.79713,2.23196c0.00797,0.0279 0.01993,0.0558 0.0279,0.0837l0,0.00001z" class="st11" id="svg_55" stroke="null"/>
     <path fill="url(#svg_2)" d="m427.35922,237.06147c-0.74133,0.50618 -28.37381,19.91228 -19.01551,74.17684c-1.62216,-0.59386 -3.26424,-1.12794 -4.89836,-1.59824c-3.48345,-1.00438 -7.12235,-1.79354 -10.8011,-2.34356c-1.53447,-0.23117 -3.09685,-0.42646 -4.67915,-0.5819c0.03986,-1.07214 0.09167,-2.13631 0.15544,-3.1925c0.43444,-7.40134 1.33918,-14.49181 2.94938,-21.17573c0.9725,-4.00956 2.20008,-7.87564 3.73455,-11.5783c1.53846,-3.71064 3.3878,-7.24989 5.59585,-10.61776c5.9705,-9.1072 14.61138,-16.91508 26.9589,-23.08884l0,-0.00001z" class="st12" id="svg_56" stroke="null"/>
     <path fill="#212222" d="m176.51865,366.99749c-0.7493,0.27501 -1.50259,0.54603 -2.25588,0.81706c-0.94858,0.34277 -1.90115,0.68952 -2.85372,1.03228c-0.38262,0.1395 -0.76524,0.279 -1.15185,0.41451c-0.56995,0.21124 -1.13989,0.41849 -1.70984,0.62176l-0.00399,-0.00399l-8.99959,-11.31126c-1.14787,-1.44679 -2.67437,-2.55878 -4.38421,-3.22837c-0.46233,-0.18334 -0.93663,-0.33081 -1.42288,-0.44639l-0.00399,-0.00399c-0.17537,-0.03587 -0.35472,-0.07573 -0.53408,-0.1116c-1.23555,-0.2232 -2.50299,-0.21522 -3.73854,0.00399c-1.43085,0.25508 -2.45516,1.12395 -3.76245,1.66201c-1.06815,0.43444 -2.23196,0.63372 -3.38381,0.57792c-2.31965,-0.10363 -4.51175,-1.24352 -5.93463,-3.0809l-8.04303,-10.56595l-4.8864,-6.42087l-0.00797,-0.00399l-8.31804,-10.92864l-2.61857,-3.43961l-2.32762,-3.053l-0.79713,-1.04822l-1.87724,-2.46711l-1.26345,-1.65404l0,-0.00399l-0.35074,-0.45835l-1.56636,-2.06456l-3.53925,-4.64726l-16.17375,-21.24349l-30.18728,-39.6492c-0.20327,-0.26305 -0.30291,-0.57393 -0.30291,-0.88083c0,-0.41849 0.18733,-0.83699 0.54205,-1.12395c0.59386,-0.47031 1.45875,-0.39856 1.96492,0.1674l31.3192,35.61174l16.99081,19.31842l1.40693,1.59824l4.10123,4.66719l0,0.00399l0.55002,0.62176l1.4149,1.60622l2.79792,3.17656l1.84137,2.09645l1.11997,1.27541l2.75408,3.12873l16.10599,18.31404l3.79035,4.30848l1.97289,2.24392c0.40654,0.45436 0.84894,0.84894 1.32323,1.19569c3.09685,2.2479 7.4412,2.13631 10.43043,-0.50219c3.20844,-2.81785 3.77042,-7.62055 1.29135,-11.10799l-0.67357,-0.95257l-20.87681,-29.58146l-2.39139,-3.3878l-0.17935,-0.24711l-3.41968,-4.84654l-2.43523,-3.45157l-2.25588,-3.19649l-0.94061,-1.33519l-11.23952,-15.92265l0,-0.00399l-7.79991,-11.04821l-6.23355,-8.8282l-16.59224,-23.50734c-0.44241,-0.62176 -0.31885,-1.47867 0.27501,-1.95297l0.01196,-0.01196c0.62176,-0.49023 1.52252,-0.38661 2.01674,0.23515l13.61098,17.1861l10.32681,13.03705l6.76364,8.54124l14.0494,17.73612l0.27501,0.34675l2.54683,3.21243l2.03666,2.57074l0.52212,0.65763l4.17696,5.28098l2.53487,3.20047l17.16617,21.67394l3.886,4.90633l5.87883,7.42127c1.48266,1.86528 2.05659,4.3324 1.54643,6.66001c-0.34675,1.60622 -1.18772,3.01315 -2.36747,4.14109c-1.08808,1.05221 -1.78557,2.51096 -2.1921,3.96572c-0.03189,0.10761 -0.0558,0.21124 -0.0837,0.31487c-0.43045,1.72977 -0.42248,3.5273 0.01196,5.22518c0.37067,1.4707 1.0562,2.84974 2.03666,4.03746l10.6895,12.90951l0.00003,-0.00002z" class="st1" id="svg_57" stroke="null"/>
     <path fill="#212222" d="m136.81763,343.73726c0.46233,0.56995 0.96054,1.02431 1.48266,1.43085c0.24312,0.21522 0.53408,0.38661 0.78119,0.57792l0.81307,0.50618l0.83699,0.45038c0.29494,0.12754 0.57393,0.26704 0.85691,0.40654c0.59785,0.22718 1.16779,0.49422 1.78557,0.68155c0.30291,0.1116 0.59785,0.23117 0.9167,0.30689c0.31088,0.09566 0.62176,0.18733 0.93264,0.29095c0.62973,0.17935 1.27541,0.33878 1.9171,0.53806c0.65365,0.14747 1.31128,0.34277 1.98087,0.53408c0.67357,0.17138 1.35113,0.36668 2.04464,0.64567c-0.6935,0.23914 -1.39896,0.39458 -2.11239,0.53009c-0.71343,0.10363 -1.43483,0.13153 -2.16022,0.15544c-0.36269,-0.00399 -0.72539,-0.03587 -1.08808,-0.06776c-0.36269,-0.03189 -0.72539,-0.0558 -1.08808,-0.12754c-0.71742,-0.15145 -1.4428,-0.28298 -2.14029,-0.55799l-0.52212,-0.1953c-0.17537,-0.05978 -0.34675,-0.13153 -0.51415,-0.21921c-0.33479,-0.17138 -0.67357,-0.33479 -1.0004,-0.51813c-0.31885,-0.21124 -0.63372,-0.41849 -0.94061,-0.64169c-0.30291,-0.23117 -0.5819,-0.49821 -0.8609,-0.7493c-0.26704,-0.27501 -0.51813,-0.56596 -0.7493,-0.8609c-0.21522,-0.31885 -0.43842,-0.62176 -0.60183,-0.96851c-0.34675,-0.65763 -0.59386,-1.40295 -0.56995,-2.14826l-0.00002,-0.00001z" class="st0" id="svg_58" stroke="null"/>
     <path fill="#212222" d="m288.02903,194.73391c-0.82901,-0.6656 -1.7776,-1.21164 -2.82981,-1.59824l-35.13745,-12.95733l-8.38181,-3.09286l-12.07651,-4.45197c-1.37903,-0.51016 -2.79792,-0.69749 -4.17696,-0.60582c-1.15185,0.07573 -2.27979,0.35074 -3.32801,0.8051c-1.88521,0.80909 -3.52331,2.18812 -4.63531,4.00956c-0.34277,0.554 -0.62973,1.15185 -0.86489,1.78557l-4.04942,10.97647l-7.45714,20.21918l-1.48266,4.02152l-4.99401,13.53525l-2.08449,5.65563l-1.18772,3.2204l-1.23555,3.35591l-1.90514,5.15344l-2.35552,6.39298c-0.85293,2.30769 -1.15982,4.76683 -0.9167,7.1901c0.09167,0.98047 0.28298,1.95695 0.55799,2.90952l0.31885,1.10004l12.51891,43.18048c0.24711,0.85691 0.21124,1.76963 -0.10363,2.60263l-21.83735,57.44909l0,0.00399c0.29494,-0.10761 0.58589,-0.21124 0.88083,-0.31885c3.62694,-1.31925 7.25387,-2.63451 10.87683,-3.9418c0.9446,-0.34277 1.8892,-0.68553 2.83778,-1.0283c0.9446,-0.34277 1.8892,-0.68553 2.83379,-1.0283l16.23353,-46.38893c0.33081,-0.94858 0.99641,-1.74571 1.87724,-2.23196l16.69188,-9.31047l13.17256,-7.34156l5.87883,-3.28019c6.75567,-3.77042 11.94099,-9.8286 14.61935,-17.08646l2.99322,-8.1068l5.91868,-16.03824l1.42686,-3.86608l4.61538,-12.50297l1.4149,-3.83419l0.58589,-1.59027l7.95535,-21.55836c1.55042,-4.1929 0.14348,-8.76045 -3.16859,-11.40692l0.00002,0.00001zm-77.98712,55.23706c-0.74532,1.94101 -2.92148,2.90554 -4.86249,2.16022c-1.93702,-0.74532 -2.90155,-2.92148 -2.15623,-4.86249l2.88162,-7.48106l0.09566,-0.2511l1.85333,-4.81067l2.27182,-5.90274l2.16421,-5.62375l7.03466,-18.2702l4.79075,-12.4392c0.57792,-1.49462 2.00478,-2.41132 3.51135,-2.41132c0.45038,0 0.90873,0.07971 1.35113,0.2511c1.55839,0.60183 2.49103,2.12833 2.39936,3.71462c-0.01993,0.38262 -0.09964,0.76923 -0.24312,1.14787l-12.17216,31.61414l-1.92108,4.97807l-0.17138,0.45038l-1.76963,4.59545l-4.41211,11.4667l-0.64567,1.67397l-0.00002,0.00001zm14.98204,5.76723c-0.74532,1.94101 -2.92148,2.90554 -4.8585,2.16022c-1.93702,-0.74532 -2.90554,-2.92148 -2.16022,-4.86249l4.42407,-11.48663l2.71422,-7.04662l1.69788,-4.40812l1.88521,-4.89836l10.37463,-26.93898c0.57393,-1.49462 2.00079,-2.41132 3.50737,-2.41132c0.45038,0 0.90873,0.07971 1.35113,0.2511c1.93702,0.7493 2.90554,2.92546 2.16022,4.86249l-8.9956,23.35987l-1.70984,4.44001l-1.64209,4.26464l-6.64806,17.25784l-2.10044,5.45635l0.00002,0zm14.98603,5.76723c-0.7493,1.94101 -2.92546,2.90554 -4.86249,2.16022s-2.90155,-2.92148 -2.15623,-4.86249l10.34275,-26.86325l1.59027,-4.12514l1.51056,-3.92586l7.64845,-19.86446c0.57393,-1.49462 2.00079,-2.41132 3.50737,-2.41132c0.45038,0 0.90873,0.07971 1.35113,0.2511c1.94101,0.7493 2.90554,2.92546 2.16022,4.86249l-6.6361,17.23792l-1.33121,3.45555l-1.5544,4.03347l-11.57033,30.05177l0.00001,0zm36.07408,-49.01148l-4.98604,12.95335l-0.93264,2.41929l-1.4986,3.89398l-13.67475,35.5121c-0.74532,1.94101 -2.92148,2.90554 -4.8585,2.16022c-1.94101,-0.74532 -2.90554,-2.92148 -2.16022,-4.86249l12.77399,-33.17253l1.51853,-3.94977l1.12395,-2.91749l5.67556,-14.73892c0.57792,-1.49462 2.00478,-2.41132 3.51135,-2.41132c0.45038,0 0.90873,0.07971 1.35113,0.2511c1.93702,0.7493 2.90554,2.92546 2.15623,4.86249l0.00001,-0.00001z" class="st1" id="svg_59" stroke="null"/>
     <g id="svg_60" stroke="null">
      <g id="svg_61" stroke="null">
       <path fill="#212222" d="m217.7063,193.26321l-1.55042,-0.36668c0.07573,-0.31487 1.86927,-7.74012 6.43682,-9.54163c1.96094,-0.77322 4.09724,-0.40654 6.34116,1.08808l-0.88481,1.32722c-1.80948,-1.20765 -3.40374,-1.51056 -4.87046,-0.93264c-3.80629,1.50259 -5.45635,8.35391 -5.47229,8.42565z" class="st0" id="svg_62" stroke="null"/>
      </g>
     </g>
     <path fill="#212222" d="m250.56396,285.82185l-30.62968,17.19407c-0.37864,0.21124 -0.85691,0.1674 -1.19171,-0.10761c-0.09964,-0.0837 -0.17935,-0.17935 -0.24711,-0.29494c-0.28298,-0.51016 -0.10363,-1.15584 0.40654,-1.4428l18.54919,-10.41051l2.20805,-1.23954l9.87244,-5.54005c0.38262,-0.21522 0.8609,-0.17138 1.19569,0.10761c0.09964,0.0837 0.18334,0.18334 0.24312,0.29494c0.28298,0.50618 0.10363,1.15185 -0.40654,1.43882l0.00001,0.00001z" class="st0" id="svg_63" stroke="null"/>
    </g>
    <g id="svg_64" stroke="null">
     <g id="svg_65" stroke="null">
      <path fill="#212222" d="m-14.48543,627.4913l0,4.46392c0,3.66679 -1.67397,5.34076 -5.34076,5.34076l-19.7688,0l0,-27.89952l18.97167,0c3.66679,0 5.34076,1.67397 5.34076,5.34076l0,3.14866c0,2.39139 -0.79713,3.94579 -2.35153,4.66321c2.11239,0.55799 3.14866,2.1921 3.14866,4.9422l0,0.00001zm-21.76162,-15.38459l0,9.32641l14.42804,0c2.35153,0 3.18852,-0.83699 3.18852,-3.18852l0,-2.94938c0,-2.35153 -0.83699,-3.18852 -3.18852,-3.18852l-14.42804,0l0,0.00001zm18.41368,14.98603c0,-2.35153 -0.83699,-3.18852 -3.18852,-3.18852l-15.22517,0l0,10.68153l15.22517,0c2.35153,0 3.18852,-0.83699 3.18852,-3.18852l0,-4.3045l0,0.00001z" class="st1" id="svg_66" stroke="null"/>
      <path fill="#212222" d="m-6.83698,609.39647l3.34794,0l0,27.89952l-3.34794,0l0,-27.89952z" class="st1" id="svg_67" stroke="null"/>
      <path fill="#212222" d="m4.48225,616.49091c0,-4.9422 2.1921,-7.09445 7.09445,-7.09445l12.51493,0c4.90234,0 7.09445,2.15225 7.09445,7.09445l0,1.47469l-3.34794,0l0,-1.03627c0,-3.46751 -1.23555,-4.70306 -4.70306,-4.70306l-10.60182,0c-3.3878,0 -4.70306,1.23555 -4.70306,4.70306l0,12.87363c0,3.3878 1.31526,4.70306 4.70306,4.70306l10.68153,0c3.46751,0 4.70306,-1.23555 4.70306,-4.70306l0,-4.14507l-9.08727,0l0,-2.67038l12.3555,0l0,7.21402c0,4.9422 -2.1921,7.09445 -7.09445,7.09445l-12.51493,0c-4.90234,0 -7.09445,-2.15225 -7.09445,-7.09445l0,-13.71062z" class="st1" id="svg_68" stroke="null"/>
      <path fill="#212222" d="m38.55952,616.49091c0,-4.9422 2.1921,-7.09445 7.09445,-7.09445l12.51493,0c4.90234,0 7.09445,2.15225 7.09445,7.09445l0,1.47469l-3.34794,0l0,-1.03627c0,-3.46751 -1.23555,-4.70306 -4.70306,-4.70306l-10.60182,0c-3.3878,0 -4.70306,1.23555 -4.70306,4.70306l0,12.87363c0,3.3878 1.31526,4.70306 4.70306,4.70306l10.68153,0c3.46751,0 4.70306,-1.23555 4.70306,-4.70306l0,-4.14507l-9.08727,0l0,-2.67038l12.3555,0l0,7.21402c0,4.9422 -2.1921,7.09445 -7.09445,7.09445l-12.51493,0c-4.90234,0 -7.09445,-2.15225 -7.09445,-7.09445l0,-13.71062z" class="st1" id="svg_69" stroke="null"/>
      <path fill="#212222" d="m76.38329,634.46618l19.21081,0l0,2.82981l-22.55875,0l0,-27.89952l22.16019,0l0,2.82981l-18.81225,0l0,9.12713l17.21799,0l0,2.67038l-17.21799,0l0,10.44239z" class="st1" id="svg_70" stroke="null"/>
      <path fill="#212222" d="m128.20067,637.29997l-3.86608,0l-8.25029,-11.19966l-10.44239,0l0,11.19966l-3.34794,0l0,-27.89952l18.41368,0c4.46392,0 6.29732,1.79354 6.29732,6.29732l0,3.94579c0,4.50378 -1.8334,6.29732 -6.29732,6.29732l-0.9167,0.03986l8.40971,11.31923l0.00001,0zm-22.56274,-25.23312l0,11.39895l14.02947,0c3.06895,0 3.98565,-0.9167 3.98565,-3.98565l0,-3.42765c0,-3.06895 -0.9167,-3.98565 -3.98565,-3.98565l-14.02947,0z" class="st1" id="svg_71" stroke="null"/>
      <path fill="#212222" d="m172.19821,609.39647l0,2.98923l-10.92067,0l0,24.91028l-3.34794,0l0,-24.91028l-10.92067,0l0,-2.98923l25.18928,0z" class="st1" id="svg_72" stroke="null"/>
      <path fill="#212222" d="m200.33686,609.39647l3.34794,0l0,27.89952l-3.34794,0l0,-13.19249l-18.81225,0l0,13.19249l-3.34794,0l0,-27.89952l3.34794,0l0,11.75765l18.81225,0l0,-11.75765z" class="st1" id="svg_73" stroke="null"/>
      <path fill="#212222" d="m236.28738,637.29997l-3.3878,-7.21402l-16.69985,0l-3.3878,7.21402l-3.54722,0l13.59105,-27.89952l3.58708,0l13.59105,27.89952l-3.74651,0zm-18.81225,-9.88839l14.14904,0l-7.05459,-15.06574l-7.09445,15.06574z" class="st1" id="svg_74" stroke="null"/>
      <path fill="#212222" d="m268.53125,609.39647l3.26823,0l0,27.89952l-2.63053,0l-20.4065,-22.8776l0,22.8776l-3.26823,0l0,-27.89952l2.82981,0l20.20722,22.63847l0,-22.63847z" class="st1" id="svg_75" stroke="null"/>
      <path fill="#212222" d="m319.86636,609.39647l-12.59464,17.49698l0,10.40253l-3.34794,0l0,-10.40253l-12.59464,-17.49698l3.94579,0l10.44239,14.8266l10.36268,-14.8266l3.78636,0z" class="st1" id="svg_76" stroke="null"/>
      <path fill="#212222" d="m330.66746,637.29997c-4.90234,0 -7.09445,-2.15225 -7.09445,-7.09445l0,-13.71062c0,-4.9422 2.1921,-7.09445 7.09445,-7.09445l12.51493,0c4.90234,0 7.09445,2.15225 7.09445,7.09445l0,13.71062c0,4.9422 -2.1921,7.09445 -7.09445,7.09445l-12.51493,0zm11.55837,-2.91351c3.46751,0 4.70306,-1.23555 4.70306,-4.70306l0,-12.67435c0,-3.46751 -1.23555,-4.70306 -4.70306,-4.70306l-10.60182,0c-3.3878,0 -4.70306,1.23555 -4.70306,4.70306l0,12.67435c0,3.46751 1.31526,4.70306 4.70306,4.70306l10.60182,0z" class="st1" id="svg_77" stroke="null"/>
      <path fill="#212222" d="m364.78459,637.29997c-4.90234,0 -7.09445,-2.15225 -7.09445,-7.09445l0,-20.80507l3.34794,0l0,20.28693c0,3.46751 1.23555,4.70306 4.70306,4.70306l9.40612,0c3.46751,0 4.70306,-1.23555 4.70306,-4.70306l0,-20.28693l3.34794,0l0,20.80507c0,4.9422 -2.1921,7.09445 -7.09445,7.09445l-11.31923,0l0.00001,0z" class="st1" id="svg_78" stroke="null"/>
      <path fill="#212222" d="m428.35563,609.39647l0,2.98923l-10.92067,0l0,24.91028l-3.34794,0l0,-24.91028l-10.92067,0l0,-2.98923l25.18928,0z" class="st1" id="svg_79" stroke="null"/>
      <path fill="#212222" d="m456.49429,609.39647l3.34794,0l0,27.89952l-3.34794,0l0,-13.19249l-18.81225,0l0,13.19249l-3.34794,0l0,-27.89952l3.34794,0l0,11.75765l18.81225,0l0,-11.75765z" class="st1" id="svg_80" stroke="null"/>
      <path fill="#212222" d="m468.2081,609.39647l3.34794,0l0,27.89952l-3.34794,0l0,-27.89952z" class="st1" id="svg_81" stroke="null"/>
      <path fill="#212222" d="m502.96691,609.39647l3.26823,0l0,27.89952l-2.63053,0l-20.4065,-22.8776l0,22.8776l-3.26823,0l0,-27.89952l2.82981,0l20.20722,22.63847l0,-22.63847z" class="st1" id="svg_82" stroke="null"/>
      <path fill="#212222" d="m539.59499,637.29997l-5.10163,0l-16.77957,-13.94976l0,13.94976l-3.34794,0l0,-27.89952l3.34794,0l0,13.15263l16.58028,-13.15263l5.14148,0l-17.53684,13.51134l17.69627,14.38818l0.00001,0z" class="st1" id="svg_83" stroke="null"/>
     </g>
    </g>
   </g>
  </g>
 </g>
</svg>